<svg viewBox="0 0 45 45" fill="current" xmlns="http://www.w3.org/2000/svg"><path d="M34.9299 17.3445C34.7262 12.8088 32.2038 10.281 27.6576 10.0722C26.3232 10.0098 25.8963 9.99539 22.5003 9.99539C19.1043 9.99539 18.6792 10.0098 17.3448 10.0722C12.8019 10.2795 10.2795 12.8001 10.0707 17.3445C10.0101 18.6789 9.99573 19.104 9.99573 22.5C9.99573 25.896 10.0101 26.3229 10.0707 27.6555C10.2798 32.1984 12.8004 34.7208 17.3448 34.9296C18.6792 34.9902 19.1043 35.0046 22.5003 35.0046C25.8963 35.0046 26.3232 34.9902 27.6576 34.9296C32.1933 34.7205 34.7247 32.2017 34.9299 27.6555C34.9905 26.3229 35.0049 25.896 35.0049 22.5C35.0049 19.104 34.9905 18.6789 34.9299 17.3445ZM32.6808 27.5538C32.5236 30.9159 30.9462 32.5272 27.5538 32.6808C26.2353 32.7414 25.8405 32.754 22.5 32.754C19.1595 32.754 18.7647 32.7396 17.448 32.6808C14.0484 32.5254 12.4764 30.9105 12.321 27.5538C12.2622 26.2335 12.2478 25.839 12.2478 22.5C12.2478 19.161 12.2622 18.7665 12.321 17.448C12.4764 14.0823 14.0556 12.4764 17.448 12.321C18.7665 12.2622 19.1613 12.2496 22.5 12.2496C25.8387 12.2496 26.2353 12.2604 27.5538 12.321C30.9426 12.4764 32.5236 14.0841 32.6808 17.448C32.7396 18.7665 32.7522 19.1613 32.7522 22.5C32.7522 25.8387 32.7396 26.2353 32.6808 27.5538Z" fill="current"></path><path d="M22.5 16.0797C18.954 16.0797 16.0779 18.954 16.0779 22.5C16.0779 26.046 18.954 28.9221 22.5 28.9221C26.046 28.9221 28.9221 26.046 28.9221 22.5C28.9221 18.954 26.046 16.0797 22.5 16.0797ZM22.5 26.6676C20.199 26.6676 18.3324 24.8025 18.3324 22.5C18.3324 20.1975 20.1993 18.3324 22.5 18.3324C24.8007 18.3324 26.6676 20.1975 26.6676 22.5C26.6676 24.8025 24.8007 26.6676 22.5 26.6676Z" fill="current"></path><path d="M29.6393 17.2551C30.4274 16.9989 30.8586 16.1523 30.6024 15.3641C30.3462 14.576 29.4995 14.1448 28.7114 14.401C27.9232 14.6572 27.492 15.5039 27.7483 16.292C28.0045 17.0802 28.8511 17.5114 29.6393 17.2551Z" fill="current"></path></svg>