<svg viewBox="0 0 45 45" fill="current" xmlns="http://www.w3.org/2000/svg"><path d="M23.8333 34.5H18.5V18.5H23.8333V21.1667C24.9701 19.7204 26.6941 18.8581 28.5333 18.816C31.8407 18.8344 34.5096 21.5258 34.5 24.8333V34.5H29.1666V25.5C28.9533 24.0102 27.6756 22.9048 26.1706 22.908C25.5123 22.9288 24.891 23.217 24.4499 23.7062C24.0088 24.1953 23.7862 24.8431 23.8333 25.5V34.5ZM15.8333 34.5H10.5V18.5H15.8333V34.5ZM13.1667 15.8334C11.6939 15.8334 10.5 14.6394 10.5 13.1667C10.5 11.6939 11.6939 10.5 13.1667 10.5C14.6394 10.5 15.8333 11.6939 15.8333 13.1667C15.8333 13.8739 15.5524 14.5522 15.0523 15.0523C14.5522 15.5524 13.8739 15.8334 13.1667 15.8334Z" fill="current"></path><path d="M23.8333 34.5H18.5V18.5H23.8333V21.1667C24.9701 19.7204 26.6941 18.8581 28.5333 18.816C31.8407 18.8344 34.5096 21.5258 34.5 24.8333V34.5H29.1666V25.5C28.9533 24.0102 27.6756 22.9048 26.1706 22.908C25.5123 22.9288 24.891 23.217 24.4499 23.7062C24.0088 24.1953 23.7862 24.8431 23.8333 25.5V34.5ZM15.8333 34.5H10.5V18.5H15.8333V34.5ZM13.1667 15.8334C11.6939 15.8334 10.5 14.6394 10.5 13.1667C10.5 11.6939 11.6939 10.5 13.1667 10.5C14.6394 10.5 15.8333 11.6939 15.8333 13.1667C15.8333 13.8739 15.5524 14.5522 15.0523 15.0523C14.5522 15.5524 13.8739 15.8334 13.1667 15.8334Z" fill="current" fill-opacity="0.2"></path><path d="M23.8333 34.5H18.5V18.5H23.8333V21.1667C24.9701 19.7204 26.6941 18.8581 28.5333 18.816C31.8407 18.8344 34.5096 21.5258 34.5 24.8333V34.5H29.1666V25.5C28.9533 24.0102 27.6756 22.9048 26.1706 22.908C25.5123 22.9288 24.891 23.217 24.4499 23.7062C24.0088 24.1953 23.7862 24.8431 23.8333 25.5V34.5ZM15.8333 34.5H10.5V18.5H15.8333V34.5ZM13.1667 15.8334C11.6939 15.8334 10.5 14.6394 10.5 13.1667C10.5 11.6939 11.6939 10.5 13.1667 10.5C14.6394 10.5 15.8333 11.6939 15.8333 13.1667C15.8333 13.8739 15.5524 14.5522 15.0523 15.0523C14.5522 15.5524 13.8739 15.8334 13.1667 15.8334Z" fill="current" fill-opacity="0.2"></path><path d="M23.8333 34.5H18.5V18.5H23.8333V21.1667C24.9701 19.7204 26.6941 18.8581 28.5333 18.816C31.8407 18.8344 34.5096 21.5258 34.5 24.8333V34.5H29.1666V25.5C28.9533 24.0102 27.6756 22.9048 26.1706 22.908C25.5123 22.9288 24.891 23.217 24.4499 23.7062C24.0088 24.1953 23.7862 24.8431 23.8333 25.5V34.5ZM15.8333 34.5H10.5V18.5H15.8333V34.5ZM13.1667 15.8334C11.6939 15.8334 10.5 14.6394 10.5 13.1667C10.5 11.6939 11.6939 10.5 13.1667 10.5C14.6394 10.5 15.8333 11.6939 15.8333 13.1667C15.8333 13.8739 15.5524 14.5522 15.0523 15.0523C14.5522 15.5524 13.8739 15.8334 13.1667 15.8334Z" fill="current" fill-opacity="0.2"></path><path d="M23.8333 34.5H18.5V18.5H23.8333V21.1667C24.9701 19.7204 26.6941 18.8581 28.5333 18.816C31.8407 18.8344 34.5096 21.5258 34.5 24.8333V34.5H29.1666V25.5C28.9533 24.0102 27.6756 22.9048 26.1706 22.908C25.5123 22.9288 24.891 23.217 24.4499 23.7062C24.0088 24.1953 23.7862 24.8431 23.8333 25.5V34.5ZM15.8333 34.5H10.5V18.5H15.8333V34.5ZM13.1667 15.8334C11.6939 15.8334 10.5 14.6394 10.5 13.1667C10.5 11.6939 11.6939 10.5 13.1667 10.5C14.6394 10.5 15.8333 11.6939 15.8333 13.1667C15.8333 13.8739 15.5524 14.5522 15.0523 15.0523C14.5522 15.5524 13.8739 15.8334 13.1667 15.8334Z" fill="current" fill-opacity="0.2"></path><path d="M23.8333 34.5H18.5V18.5H23.8333V21.1667C24.9701 19.7204 26.6941 18.8581 28.5333 18.816C31.8407 18.8344 34.5096 21.5258 34.5 24.8333V34.5H29.1666V25.5C28.9533 24.0102 27.6756 22.9048 26.1706 22.908C25.5123 22.9288 24.891 23.217 24.4499 23.7062C24.0088 24.1953 23.7862 24.8431 23.8333 25.5V34.5ZM15.8333 34.5H10.5V18.5H15.8333V34.5ZM13.1667 15.8334C11.6939 15.8334 10.5 14.6394 10.5 13.1667C10.5 11.6939 11.6939 10.5 13.1667 10.5C14.6394 10.5 15.8333 11.6939 15.8333 13.1667C15.8333 13.8739 15.5524 14.5522 15.0523 15.0523C14.5522 15.5524 13.8739 15.8334 13.1667 15.8334Z" fill="current" fill-opacity="0.2"></path><path d="M23.8333 34.5H18.5V18.5H23.8333V21.1667C24.9701 19.7204 26.6941 18.8581 28.5333 18.816C31.8407 18.8344 34.5096 21.5258 34.5 24.8333V34.5H29.1666V25.5C28.9533 24.0102 27.6756 22.9048 26.1706 22.908C25.5123 22.9288 24.891 23.217 24.4499 23.7062C24.0088 24.1953 23.7862 24.8431 23.8333 25.5V34.5ZM15.8333 34.5H10.5V18.5H15.8333V34.5ZM13.1667 15.8334C11.6939 15.8334 10.5 14.6394 10.5 13.1667C10.5 11.6939 11.6939 10.5 13.1667 10.5C14.6394 10.5 15.8333 11.6939 15.8333 13.1667C15.8333 13.8739 15.5524 14.5522 15.0523 15.0523C14.5522 15.5524 13.8739 15.8334 13.1667 15.8334Z" fill="current" fill-opacity="0.2"></path><path d="M23.8333 34.5H18.5V18.5H23.8333V21.1667C24.9701 19.7204 26.6941 18.8581 28.5333 18.816C31.8407 18.8344 34.5096 21.5258 34.5 24.8333V34.5H29.1666V25.5C28.9533 24.0102 27.6756 22.9048 26.1706 22.908C25.5123 22.9288 24.891 23.217 24.4499 23.7062C24.0088 24.1953 23.7862 24.8431 23.8333 25.5V34.5ZM15.8333 34.5H10.5V18.5H15.8333V34.5ZM13.1667 15.8334C11.6939 15.8334 10.5 14.6394 10.5 13.1667C10.5 11.6939 11.6939 10.5 13.1667 10.5C14.6394 10.5 15.8333 11.6939 15.8333 13.1667C15.8333 13.8739 15.5524 14.5522 15.0523 15.0523C14.5522 15.5524 13.8739 15.8334 13.1667 15.8334Z" fill="current" fill-opacity="0.2"></path><path d="M23.8333 34.5H18.5V18.5H23.8333V21.1667C24.9701 19.7204 26.6941 18.8581 28.5333 18.816C31.8407 18.8344 34.5096 21.5258 34.5 24.8333V34.5H29.1666V25.5C28.9533 24.0102 27.6756 22.9048 26.1706 22.908C25.5123 22.9288 24.891 23.217 24.4499 23.7062C24.0088 24.1953 23.7862 24.8431 23.8333 25.5V34.5ZM15.8333 34.5H10.5V18.5H15.8333V34.5ZM13.1667 15.8334C11.6939 15.8334 10.5 14.6394 10.5 13.1667C10.5 11.6939 11.6939 10.5 13.1667 10.5C14.6394 10.5 15.8333 11.6939 15.8333 13.1667C15.8333 13.8739 15.5524 14.5522 15.0523 15.0523C14.5522 15.5524 13.8739 15.8334 13.1667 15.8334Z" fill="current" fill-opacity="0.2"></path><path d="M23.8333 34.5H18.5V18.5H23.8333V21.1667C24.9701 19.7204 26.6941 18.8581 28.5333 18.816C31.8407 18.8344 34.5096 21.5258 34.5 24.8333V34.5H29.1666V25.5C28.9533 24.0102 27.6756 22.9048 26.1706 22.908C25.5123 22.9288 24.891 23.217 24.4499 23.7062C24.0088 24.1953 23.7862 24.8431 23.8333 25.5V34.5ZM15.8333 34.5H10.5V18.5H15.8333V34.5ZM13.1667 15.8334C11.6939 15.8334 10.5 14.6394 10.5 13.1667C10.5 11.6939 11.6939 10.5 13.1667 10.5C14.6394 10.5 15.8333 11.6939 15.8333 13.1667C15.8333 13.8739 15.5524 14.5522 15.0523 15.0523C14.5522 15.5524 13.8739 15.8334 13.1667 15.8334Z" fill="current" fill-opacity="0.2"></path><path d="M23.8333 34.5H18.5V18.5H23.8333V21.1667C24.9701 19.7204 26.6941 18.8581 28.5333 18.816C31.8407 18.8344 34.5096 21.5258 34.5 24.8333V34.5H29.1666V25.5C28.9533 24.0102 27.6756 22.9048 26.1706 22.908C25.5123 22.9288 24.891 23.217 24.4499 23.7062C24.0088 24.1953 23.7862 24.8431 23.8333 25.5V34.5ZM15.8333 34.5H10.5V18.5H15.8333V34.5ZM13.1667 15.8334C11.6939 15.8334 10.5 14.6394 10.5 13.1667C10.5 11.6939 11.6939 10.5 13.1667 10.5C14.6394 10.5 15.8333 11.6939 15.8333 13.1667C15.8333 13.8739 15.5524 14.5522 15.0523 15.0523C14.5522 15.5524 13.8739 15.8334 13.1667 15.8334Z" fill="current" fill-opacity="0.2"></path></svg>