<svg viewBox="0 0 45 45" fill="current" xmlns="http://www.w3.org/2000/svg"><path d="M28.4283 27.4368C28.4295 24.4971 28.4283 21.5577 28.4283 18.618C28.4283 18.4935 28.4283 18.369 28.4283 18.1779C29.9724 19.2255 31.5957 19.8771 33.4101 20.0898V14.5644C33.2727 14.5515 33.1668 14.5401 33.0603 14.5314C31.8168 14.4324 30.6861 14.0718 29.6853 13.2786C28.4595 12.3066 27.6252 11.1072 27.2772 9.58169C27.2232 9.34559 27.1188 9.26189 26.8812 9.26459C26.016 9.27419 25.1505 9.26789 24.2853 9.26849C23.9655 9.26869 23.8055 9.43069 23.8053 9.75449C23.8053 15.6336 23.8062 21.5127 23.8047 27.3921C23.8044 29.0418 22.6524 30.5466 21.0339 30.9789C19.3005 31.4421 17.6745 30.7086 16.791 29.3403C15.909 27.9747 15.9918 26.535 16.8894 25.1922C17.7687 23.8767 19.3284 23.3046 20.8725 23.6451C20.9712 23.667 21.0726 23.6763 21.2034 23.6961C21.2034 22.1907 21.2064 20.7336 21.1944 19.2768C21.1938 19.2042 21.0618 19.071 20.9901 19.0704C20.1924 19.062 19.3713 18.9543 18.6006 19.1019C15.3216 19.7307 13.0293 21.6321 12.0357 24.8196C11.0376 28.0212 11.7039 30.9261 14.1609 33.3243C15.5742 34.7037 17.2644 35.4831 19.2312 35.6901C24.0927 36.2016 28.4268 32.3187 28.4286 27.4368H28.4283Z" fill="current"></path><path d="M28.4283 27.4368C28.4295 24.4971 28.4283 21.5577 28.4283 18.618C28.4283 18.4935 28.4283 18.369 28.4283 18.1779C29.9724 19.2255 31.5957 19.8771 33.4101 20.0898V14.5644C33.2727 14.5515 33.1668 14.5401 33.0603 14.5314C31.8168 14.4324 30.6861 14.0718 29.6853 13.2786C28.4595 12.3066 27.6252 11.1072 27.2772 9.58169C27.2232 9.34559 27.1188 9.26189 26.8812 9.26459C26.016 9.27419 25.1505 9.26789 24.2853 9.26849C23.9655 9.26869 23.8055 9.43069 23.8053 9.75449C23.8053 15.6336 23.8062 21.5127 23.8047 27.3921C23.8044 29.0418 22.6524 30.5466 21.0339 30.9789C19.3005 31.4421 17.6745 30.7086 16.791 29.3403C15.909 27.9747 15.9918 26.535 16.8894 25.1922C17.7687 23.8767 19.3284 23.3046 20.8725 23.6451C20.9712 23.667 21.0726 23.6763 21.2034 23.6961C21.2034 22.1907 21.2064 20.7336 21.1944 19.2768C21.1938 19.2042 21.0618 19.071 20.9901 19.0704C20.1924 19.062 19.3713 18.9543 18.6006 19.1019C15.3216 19.7307 13.0293 21.6321 12.0357 24.8196C11.0376 28.0212 11.7039 30.9261 14.1609 33.3243C15.5742 34.7037 17.2644 35.4831 19.2312 35.6901C24.0927 36.2016 28.4268 32.3187 28.4286 27.4368H28.4283Z" fill="current" fill-opacity="0.2"></path><path d="M28.4283 27.4368C28.4295 24.4971 28.4283 21.5577 28.4283 18.618C28.4283 18.4935 28.4283 18.369 28.4283 18.1779C29.9724 19.2255 31.5957 19.8771 33.4101 20.0898V14.5644C33.2727 14.5515 33.1668 14.5401 33.0603 14.5314C31.8168 14.4324 30.6861 14.0718 29.6853 13.2786C28.4595 12.3066 27.6252 11.1072 27.2772 9.58169C27.2232 9.34559 27.1188 9.26189 26.8812 9.26459C26.016 9.27419 25.1505 9.26789 24.2853 9.26849C23.9655 9.26869 23.8055 9.43069 23.8053 9.75449C23.8053 15.6336 23.8062 21.5127 23.8047 27.3921C23.8044 29.0418 22.6524 30.5466 21.0339 30.9789C19.3005 31.4421 17.6745 30.7086 16.791 29.3403C15.909 27.9747 15.9918 26.535 16.8894 25.1922C17.7687 23.8767 19.3284 23.3046 20.8725 23.6451C20.9712 23.667 21.0726 23.6763 21.2034 23.6961C21.2034 22.1907 21.2064 20.7336 21.1944 19.2768C21.1938 19.2042 21.0618 19.071 20.9901 19.0704C20.1924 19.062 19.3713 18.9543 18.6006 19.1019C15.3216 19.7307 13.0293 21.6321 12.0357 24.8196C11.0376 28.0212 11.7039 30.9261 14.1609 33.3243C15.5742 34.7037 17.2644 35.4831 19.2312 35.6901C24.0927 36.2016 28.4268 32.3187 28.4286 27.4368H28.4283Z" fill="current" fill-opacity="0.2"></path><path d="M28.4283 27.4368C28.4295 24.4971 28.4283 21.5577 28.4283 18.618C28.4283 18.4935 28.4283 18.369 28.4283 18.1779C29.9724 19.2255 31.5957 19.8771 33.4101 20.0898V14.5644C33.2727 14.5515 33.1668 14.5401 33.0603 14.5314C31.8168 14.4324 30.6861 14.0718 29.6853 13.2786C28.4595 12.3066 27.6252 11.1072 27.2772 9.58169C27.2232 9.34559 27.1188 9.26189 26.8812 9.26459C26.016 9.27419 25.1505 9.26789 24.2853 9.26849C23.9655 9.26869 23.8055 9.43069 23.8053 9.75449C23.8053 15.6336 23.8062 21.5127 23.8047 27.3921C23.8044 29.0418 22.6524 30.5466 21.0339 30.9789C19.3005 31.4421 17.6745 30.7086 16.791 29.3403C15.909 27.9747 15.9918 26.535 16.8894 25.1922C17.7687 23.8767 19.3284 23.3046 20.8725 23.6451C20.9712 23.667 21.0726 23.6763 21.2034 23.6961C21.2034 22.1907 21.2064 20.7336 21.1944 19.2768C21.1938 19.2042 21.0618 19.071 20.9901 19.0704C20.1924 19.062 19.3713 18.9543 18.6006 19.1019C15.3216 19.7307 13.0293 21.6321 12.0357 24.8196C11.0376 28.0212 11.7039 30.9261 14.1609 33.3243C15.5742 34.7037 17.2644 35.4831 19.2312 35.6901C24.0927 36.2016 28.4268 32.3187 28.4286 27.4368H28.4283Z" fill="current" fill-opacity="0.2"></path><path d="M28.4283 27.4368C28.4295 24.4971 28.4283 21.5577 28.4283 18.618C28.4283 18.4935 28.4283 18.369 28.4283 18.1779C29.9724 19.2255 31.5957 19.8771 33.4101 20.0898V14.5644C33.2727 14.5515 33.1668 14.5401 33.0603 14.5314C31.8168 14.4324 30.6861 14.0718 29.6853 13.2786C28.4595 12.3066 27.6252 11.1072 27.2772 9.58169C27.2232 9.34559 27.1188 9.26189 26.8812 9.26459C26.016 9.27419 25.1505 9.26789 24.2853 9.26849C23.9655 9.26869 23.8055 9.43069 23.8053 9.75449C23.8053 15.6336 23.8062 21.5127 23.8047 27.3921C23.8044 29.0418 22.6524 30.5466 21.0339 30.9789C19.3005 31.4421 17.6745 30.7086 16.791 29.3403C15.909 27.9747 15.9918 26.535 16.8894 25.1922C17.7687 23.8767 19.3284 23.3046 20.8725 23.6451C20.9712 23.667 21.0726 23.6763 21.2034 23.6961C21.2034 22.1907 21.2064 20.7336 21.1944 19.2768C21.1938 19.2042 21.0618 19.071 20.9901 19.0704C20.1924 19.062 19.3713 18.9543 18.6006 19.1019C15.3216 19.7307 13.0293 21.6321 12.0357 24.8196C11.0376 28.0212 11.7039 30.9261 14.1609 33.3243C15.5742 34.7037 17.2644 35.4831 19.2312 35.6901C24.0927 36.2016 28.4268 32.3187 28.4286 27.4368H28.4283Z" fill="current" fill-opacity="0.2"></path><path d="M28.4283 27.4368C28.4295 24.4971 28.4283 21.5577 28.4283 18.618C28.4283 18.4935 28.4283 18.369 28.4283 18.1779C29.9724 19.2255 31.5957 19.8771 33.4101 20.0898V14.5644C33.2727 14.5515 33.1668 14.5401 33.0603 14.5314C31.8168 14.4324 30.6861 14.0718 29.6853 13.2786C28.4595 12.3066 27.6252 11.1072 27.2772 9.58169C27.2232 9.34559 27.1188 9.26189 26.8812 9.26459C26.016 9.27419 25.1505 9.26789 24.2853 9.26849C23.9655 9.26869 23.8055 9.43069 23.8053 9.75449C23.8053 15.6336 23.8062 21.5127 23.8047 27.3921C23.8044 29.0418 22.6524 30.5466 21.0339 30.9789C19.3005 31.4421 17.6745 30.7086 16.791 29.3403C15.909 27.9747 15.9918 26.535 16.8894 25.1922C17.7687 23.8767 19.3284 23.3046 20.8725 23.6451C20.9712 23.667 21.0726 23.6763 21.2034 23.6961C21.2034 22.1907 21.2064 20.7336 21.1944 19.2768C21.1938 19.2042 21.0618 19.071 20.9901 19.0704C20.1924 19.062 19.3713 18.9543 18.6006 19.1019C15.3216 19.7307 13.0293 21.6321 12.0357 24.8196C11.0376 28.0212 11.7039 30.9261 14.1609 33.3243C15.5742 34.7037 17.2644 35.4831 19.2312 35.6901C24.0927 36.2016 28.4268 32.3187 28.4286 27.4368H28.4283Z" fill="current" fill-opacity="0.2"></path><path d="M28.4283 27.4368C28.4295 24.4971 28.4283 21.5577 28.4283 18.618C28.4283 18.4935 28.4283 18.369 28.4283 18.1779C29.9724 19.2255 31.5957 19.8771 33.4101 20.0898V14.5644C33.2727 14.5515 33.1668 14.5401 33.0603 14.5314C31.8168 14.4324 30.6861 14.0718 29.6853 13.2786C28.4595 12.3066 27.6252 11.1072 27.2772 9.58169C27.2232 9.34559 27.1188 9.26189 26.8812 9.26459C26.016 9.27419 25.1505 9.26789 24.2853 9.26849C23.9655 9.26869 23.8055 9.43069 23.8053 9.75449C23.8053 15.6336 23.8062 21.5127 23.8047 27.3921C23.8044 29.0418 22.6524 30.5466 21.0339 30.9789C19.3005 31.4421 17.6745 30.7086 16.791 29.3403C15.909 27.9747 15.9918 26.535 16.8894 25.1922C17.7687 23.8767 19.3284 23.3046 20.8725 23.6451C20.9712 23.667 21.0726 23.6763 21.2034 23.6961C21.2034 22.1907 21.2064 20.7336 21.1944 19.2768C21.1938 19.2042 21.0618 19.071 20.9901 19.0704C20.1924 19.062 19.3713 18.9543 18.6006 19.1019C15.3216 19.7307 13.0293 21.6321 12.0357 24.8196C11.0376 28.0212 11.7039 30.9261 14.1609 33.3243C15.5742 34.7037 17.2644 35.4831 19.2312 35.6901C24.0927 36.2016 28.4268 32.3187 28.4286 27.4368H28.4283Z" fill="current" fill-opacity="0.2"></path><path d="M28.4283 27.4368C28.4295 24.4971 28.4283 21.5577 28.4283 18.618C28.4283 18.4935 28.4283 18.369 28.4283 18.1779C29.9724 19.2255 31.5957 19.8771 33.4101 20.0898V14.5644C33.2727 14.5515 33.1668 14.5401 33.0603 14.5314C31.8168 14.4324 30.6861 14.0718 29.6853 13.2786C28.4595 12.3066 27.6252 11.1072 27.2772 9.58169C27.2232 9.34559 27.1188 9.26189 26.8812 9.26459C26.016 9.27419 25.1505 9.26789 24.2853 9.26849C23.9655 9.26869 23.8055 9.43069 23.8053 9.75449C23.8053 15.6336 23.8062 21.5127 23.8047 27.3921C23.8044 29.0418 22.6524 30.5466 21.0339 30.9789C19.3005 31.4421 17.6745 30.7086 16.791 29.3403C15.909 27.9747 15.9918 26.535 16.8894 25.1922C17.7687 23.8767 19.3284 23.3046 20.8725 23.6451C20.9712 23.667 21.0726 23.6763 21.2034 23.6961C21.2034 22.1907 21.2064 20.7336 21.1944 19.2768C21.1938 19.2042 21.0618 19.071 20.9901 19.0704C20.1924 19.062 19.3713 18.9543 18.6006 19.1019C15.3216 19.7307 13.0293 21.6321 12.0357 24.8196C11.0376 28.0212 11.7039 30.9261 14.1609 33.3243C15.5742 34.7037 17.2644 35.4831 19.2312 35.6901C24.0927 36.2016 28.4268 32.3187 28.4286 27.4368H28.4283Z" fill="current" fill-opacity="0.2"></path><path d="M28.4283 27.4368C28.4295 24.4971 28.4283 21.5577 28.4283 18.618C28.4283 18.4935 28.4283 18.369 28.4283 18.1779C29.9724 19.2255 31.5957 19.8771 33.4101 20.0898V14.5644C33.2727 14.5515 33.1668 14.5401 33.0603 14.5314C31.8168 14.4324 30.6861 14.0718 29.6853 13.2786C28.4595 12.3066 27.6252 11.1072 27.2772 9.58169C27.2232 9.34559 27.1188 9.26189 26.8812 9.26459C26.016 9.27419 25.1505 9.26789 24.2853 9.26849C23.9655 9.26869 23.8055 9.43069 23.8053 9.75449C23.8053 15.6336 23.8062 21.5127 23.8047 27.3921C23.8044 29.0418 22.6524 30.5466 21.0339 30.9789C19.3005 31.4421 17.6745 30.7086 16.791 29.3403C15.909 27.9747 15.9918 26.535 16.8894 25.1922C17.7687 23.8767 19.3284 23.3046 20.8725 23.6451C20.9712 23.667 21.0726 23.6763 21.2034 23.6961C21.2034 22.1907 21.2064 20.7336 21.1944 19.2768C21.1938 19.2042 21.0618 19.071 20.9901 19.0704C20.1924 19.062 19.3713 18.9543 18.6006 19.1019C15.3216 19.7307 13.0293 21.6321 12.0357 24.8196C11.0376 28.0212 11.7039 30.9261 14.1609 33.3243C15.5742 34.7037 17.2644 35.4831 19.2312 35.6901C24.0927 36.2016 28.4268 32.3187 28.4286 27.4368H28.4283Z" fill="current" fill-opacity="0.2"></path><path d="M28.4283 27.4368C28.4295 24.4971 28.4283 21.5577 28.4283 18.618C28.4283 18.4935 28.4283 18.369 28.4283 18.1779C29.9724 19.2255 31.5957 19.8771 33.4101 20.0898V14.5644C33.2727 14.5515 33.1668 14.5401 33.0603 14.5314C31.8168 14.4324 30.6861 14.0718 29.6853 13.2786C28.4595 12.3066 27.6252 11.1072 27.2772 9.58169C27.2232 9.34559 27.1188 9.26189 26.8812 9.26459C26.016 9.27419 25.1505 9.26789 24.2853 9.26849C23.9655 9.26869 23.8055 9.43069 23.8053 9.75449C23.8053 15.6336 23.8062 21.5127 23.8047 27.3921C23.8044 29.0418 22.6524 30.5466 21.0339 30.9789C19.3005 31.4421 17.6745 30.7086 16.791 29.3403C15.909 27.9747 15.9918 26.535 16.8894 25.1922C17.7687 23.8767 19.3284 23.3046 20.8725 23.6451C20.9712 23.667 21.0726 23.6763 21.2034 23.6961C21.2034 22.1907 21.2064 20.7336 21.1944 19.2768C21.1938 19.2042 21.0618 19.071 20.9901 19.0704C20.1924 19.062 19.3713 18.9543 18.6006 19.1019C15.3216 19.7307 13.0293 21.6321 12.0357 24.8196C11.0376 28.0212 11.7039 30.9261 14.1609 33.3243C15.5742 34.7037 17.2644 35.4831 19.2312 35.6901C24.0927 36.2016 28.4268 32.3187 28.4286 27.4368H28.4283Z" fill="current" fill-opacity="0.2"></path><path d="M28.4283 27.4368C28.4295 24.4971 28.4283 21.5577 28.4283 18.618C28.4283 18.4935 28.4283 18.369 28.4283 18.1779C29.9724 19.2255 31.5957 19.8771 33.4101 20.0898V14.5644C33.2727 14.5515 33.1668 14.5401 33.0603 14.5314C31.8168 14.4324 30.6861 14.0718 29.6853 13.2786C28.4595 12.3066 27.6252 11.1072 27.2772 9.58169C27.2232 9.34559 27.1188 9.26189 26.8812 9.26459C26.016 9.27419 25.1505 9.26789 24.2853 9.26849C23.9655 9.26869 23.8055 9.43069 23.8053 9.75449C23.8053 15.6336 23.8062 21.5127 23.8047 27.3921C23.8044 29.0418 22.6524 30.5466 21.0339 30.9789C19.3005 31.4421 17.6745 30.7086 16.791 29.3403C15.909 27.9747 15.9918 26.535 16.8894 25.1922C17.7687 23.8767 19.3284 23.3046 20.8725 23.6451C20.9712 23.667 21.0726 23.6763 21.2034 23.6961C21.2034 22.1907 21.2064 20.7336 21.1944 19.2768C21.1938 19.2042 21.0618 19.071 20.9901 19.0704C20.1924 19.062 19.3713 18.9543 18.6006 19.1019C15.3216 19.7307 13.0293 21.6321 12.0357 24.8196C11.0376 28.0212 11.7039 30.9261 14.1609 33.3243C15.5742 34.7037 17.2644 35.4831 19.2312 35.6901C24.0927 36.2016 28.4268 32.3187 28.4286 27.4368H28.4283Z" fill="current" fill-opacity="0.2"></path></svg>