<svg viewBox="0 0 45 45" fill="current" xmlns="http://www.w3.org/2000/svg"><path d="M12.0532 30.4545L12.0522 30.4543C11.0624 30.2004 10.3025 29.4719 10.0358 28.5565C9.66492 26.5559 9.48589 24.5274 9.50087 22.496H9.5009L9.50087 22.4899C9.49126 20.4555 9.67509 18.4243 10.0501 16.4213C10.325 15.5024 11.0829 14.7691 12.072 14.4976C12.5375 14.3819 13.3868 14.2878 14.4432 14.2156C15.4905 14.144 16.7032 14.0961 17.867 14.064C20.194 14 22.309 14 22.4803 14H22.5086C22.5484 14 24.6613 14.0038 27.0233 14.0757C28.2046 14.1117 29.444 14.1645 30.5157 14.242C31.6011 14.3205 32.4735 14.4218 32.9453 14.5451L32.9467 14.5455C33.935 14.8008 34.6938 15.5283 34.9617 16.4426C35.3441 18.4494 35.5235 20.4864 35.4975 22.5257L35.4975 22.5257L35.4975 22.5344C35.5068 24.5666 35.3224 26.5955 34.9468 28.5961C34.6765 29.5107 33.916 30.2378 32.9266 30.4927C32.4628 30.6096 31.6124 30.705 30.5533 30.7785C29.5064 30.8511 28.2937 30.9 27.1299 30.9329C24.803 30.9987 22.6877 31 22.5167 31H22.4897C22.4506 31 20.3435 30.9962 17.9843 30.9243C16.8045 30.8883 15.5658 30.8355 14.4931 30.758C13.4071 30.6795 12.5311 30.5782 12.0532 30.4545ZM20.0595 18.2065L19.3197 17.8006L19.3189 18.6444L19.3122 26.3521L19.3115 27.1972L20.0525 26.791L27.0829 22.9372L27.8824 22.4989L27.0831 22.0604L20.0595 18.2065Z" fill="current" stroke="current"></path></svg>