<svg viewBox="0 0 733 128" xmlns="http://www.w3.org/2000/svg" class="fill-black w-32 md:w-40 hidden min-[300px]:block mt-1"><g><path d="M231.877 63.2216L235.247 65.303V66.534L216.889 66.5234L214.512 58.3032L194.564 58.2926L192.076 66.5075L173.812 66.497V65.266L177.188 63.1899L192.799 9.83255L187.744 0.856905V0.386719L213.45 0.402583L231.777 63.2216H231.877ZM197.844 46.5804L211.141 46.5857L204.601 24.1968L197.844 46.5804Z"></path><path d="M172.935 48.8411C173.014 57.3148 166.305 66.4014 151.845 66.5441C139.203 66.6656 130.624 60.4582 129.567 49.9927L127.555 49.7392L127.259 48.5558C127.993 48.3656 128.722 48.1754 129.456 47.9852L144.84 44.4668C144.661 45.6554 144.576 46.749 144.587 47.7528C144.629 52.2168 146.853 54.5677 150.778 54.5307C154.608 54.4937 157.271 52.4651 157.239 49.3641C157.134 38.5183 130.856 34.3078 130.687 16.9006C130.608 8.88116 137.138 0.523609 150.926 0.391537C163.473 0.27003 172.623 6.01256 172.734 17.7723L156.685 21.6658L156.479 20.4824L157.62 19.3783L157.614 18.6493C157.577 14.6395 155.929 12.4683 151.808 12.5105C148.554 12.5422 146.362 14.0214 146.388 16.5731C146.483 26.5895 172.771 31.8037 172.935 48.8411Z"></path><path d="M51.2375 47.9061H52.5265V66.4703L6 66.465V65.2393L9.36521 63.1684V3.80974L6 1.73882V0.513184L51.5333 0.518472V15.3106H50.2443L48.0678 12.1092H22.6306V21.0584H48.464V32.554H22.6306V51.1181H49.0609L51.2375 47.9061Z"></path><path d="M103.331 48.768H104.62L104.615 66.4394L57.6553 66.4288V65.1979L61.031 63.1217L61.0522 3.58335L57.6764 1.50192V0.270996L77.4345 0.276284V1.50718L74.0587 3.58335L74.0428 51.9748L101.144 51.9801L103.331 48.768Z"></path><path d="M296.624 1.70168L293.259 3.78314L293.333 63.2211L296.703 65.292V66.5176L273.807 66.5441V65.3184L277.172 63.237L277.14 38.4231L259.184 24.8567L259.231 63.2581L262.602 65.329V66.5546L239.706 66.581V65.3554L243.076 63.2739L243.002 3.83599L239.632 1.7651V0.539466L259.157 0.518314L259.168 9.7634L277.125 23.3299L277.098 0.497194L296.624 0.476074V1.70168Z"></path><path d="M355.459 13.7155L336.197 10.8099L336.271 63.248L339.647 65.3242V66.5551L316.619 66.5868V65.3559L319.989 63.2744L319.915 10.831L300.86 13.7842L300.839 0.460687L355.438 0.386719L355.459 13.7155Z"></path><path d="M427.09 35.3702C426.107 53.554 409.736 67.5273 390.633 66.4918C371.53 65.4564 356.764 49.7979 357.747 31.6141C358.729 13.4304 375.101 -0.542944 394.204 0.492505C413.307 1.52267 428.073 17.1865 427.09 35.3702ZM412.002 34.5514C412.557 24.2762 404.321 15.4431 393.433 14.8567C382.544 14.265 373.305 22.1577 372.75 32.4277C372.19 42.7927 380.526 51.631 391.414 52.2174C402.297 52.8091 411.442 44.9165 412.002 34.5514Z"></path><path d="M727.332 35.3389C726.344 53.5385 709.962 67.5276 690.843 66.4922C671.724 65.4567 656.943 49.7823 657.925 31.5827C658.913 13.3831 675.295 -0.60599 694.414 0.429459C713.533 1.46491 728.315 17.1393 727.332 35.3389ZM712.228 34.5201C712.783 24.2395 704.536 15.3959 693.638 14.8043C682.739 14.2126 673.489 22.1105 672.934 32.391C672.374 42.7666 680.716 51.6102 691.614 52.2019C702.513 52.7989 711.668 44.8957 712.228 34.5201Z"></path><path d="M534.936 57.8594L540.499 66.1007V66.2856L521.227 66.1536L521.385 42.9194L520.318 42.9141C517.402 59.0269 502.43 67.0411 487.321 66.9407C463.69 66.7822 452.084 49.8294 452.2 33.0509C452.311 16.3622 463.949 -0.152146 486.999 0.00105777C498.716 0.0803013 507.507 3.92096 513.941 11.708L501.97 20.4776C499.472 17.5086 495.81 14.3494 486.903 14.2913C474.7 14.2068 468.535 23.6632 468.471 33.3467C468.403 43.2099 474.726 53.2105 487.802 53.3003C494.97 53.3478 501.87 50.0777 504.823 42.8137L493.491 42.7398L493.576 30.5679L535.126 30.8479L534.936 57.8594Z"></path><path d="M603.258 63.19L606.634 65.2662V66.4972L588.276 66.513L585.888 58.2981L565.939 58.3139L563.467 66.5341L545.204 66.55V65.3191L548.575 63.2376L564.106 9.85913L559.035 0.888767V0.418581L584.741 0.397461L603.158 63.19H603.258ZM569.199 46.5965L582.496 46.5859L575.924 24.2075L569.199 46.5965Z"></path><path d="M656.319 13.6784L637.058 10.7728L637.132 63.2109L640.507 65.2871V66.518L617.479 66.5497V65.3188L620.85 63.2373L620.776 10.7939L601.72 13.7471L601.699 0.423578L656.298 0.349609L656.319 13.6784Z"></path><path d="M301.107 111.66V86.8565C302.713 86.7614 304.103 86.6928 305.286 86.6452C306.464 86.5977 307.463 86.566 308.276 86.5554C309.09 86.5448 309.729 86.5396 310.205 86.5396C312.328 86.5396 314.098 86.698 315.514 87.0203C316.93 87.3373 318.044 87.8391 318.858 88.5206C319.672 89.2074 320.237 90.1002 320.559 91.2097C320.876 92.3191 321.035 93.6503 321.035 95.2088C321.035 96.8148 320.865 98.1936 320.522 99.3453C320.179 100.502 319.635 101.448 318.895 102.177C318.15 102.906 317.173 103.45 315.958 103.804C314.743 104.158 313.253 104.332 311.483 104.332C310.986 104.332 310.569 104.332 310.226 104.332C309.882 104.332 309.571 104.327 309.291 104.317C309.005 104.306 308.725 104.301 308.44 104.301C308.155 104.301 307.833 104.285 307.468 104.248C307.104 104.216 306.649 104.195 306.105 104.195V111.66H301.107ZM306.1 90.6444V100.233C306.522 100.254 306.897 100.275 307.214 100.286C307.531 100.302 307.838 100.307 308.134 100.323C308.43 100.339 308.715 100.344 309 100.36C309.285 100.37 309.613 100.375 309.993 100.375C311.245 100.375 312.249 100.28 313.015 100.09C313.781 99.9 314.383 99.5936 314.822 99.171C315.26 98.7483 315.561 98.1989 315.725 97.528C315.889 96.8571 315.974 96.0488 315.974 95.1031C315.974 94.279 315.894 93.5764 315.741 92.9952C315.588 92.4194 315.308 91.9492 314.912 91.5794C314.51 91.2149 313.955 90.9402 313.248 90.7659C312.54 90.5915 311.642 90.5017 310.559 90.5017C310.252 90.5017 309.956 90.5017 309.676 90.5017C309.391 90.5017 309.09 90.507 308.773 90.5176C308.456 90.5282 308.081 90.5493 307.658 90.5704C307.23 90.5968 306.713 90.618 306.1 90.6444Z"></path><path d="M323.893 103.804V86.8931H328.811V103.878C328.811 104.517 328.895 105.066 329.075 105.542C329.249 106.012 329.503 106.403 329.836 106.709C330.169 107.016 330.549 107.264 330.988 107.454C331.426 107.644 331.901 107.771 332.419 107.845C332.937 107.914 333.455 107.951 333.978 107.951C334.569 107.951 335.119 107.914 335.642 107.829C336.159 107.745 336.64 107.607 337.073 107.422C337.507 107.232 337.882 106.984 338.188 106.678C338.495 106.371 338.743 105.985 338.933 105.531C339.123 105.072 339.218 104.522 339.218 103.888V86.9036H344.137V103.814C344.137 105.04 343.983 106.112 343.677 107.031C343.371 107.951 342.927 108.733 342.351 109.367C341.77 110.006 341.067 110.513 340.243 110.888C339.419 111.263 338.473 111.548 337.412 111.739C336.35 111.929 335.203 112.024 333.978 112.024C332.773 112.024 331.653 111.929 330.618 111.739C329.577 111.548 328.647 111.268 327.823 110.888C326.999 110.513 326.291 110.006 325.699 109.367C325.108 108.727 324.659 107.951 324.352 107.031C324.051 106.102 323.893 105.029 323.893 103.804Z"></path><path d="M348.241 111.659V86.8931H365.363V91.2462H353.334V96.8725H364.481V101.046H353.334V107.38H366.039V111.659H348.241Z"></path><path d="M369.189 111.623V86.9622C370.579 86.8935 371.815 86.8196 372.887 86.7509C373.96 86.6822 374.964 86.6293 375.893 86.5924C376.823 86.5554 377.679 86.5396 378.461 86.5396C380.701 86.5396 382.497 86.7456 383.855 87.1576C385.213 87.5697 386.195 88.2195 386.808 89.1017C387.421 89.9893 387.727 91.1357 387.727 92.5515C387.727 93.8986 387.421 95.0503 386.808 96.0171C386.195 96.9839 385.286 97.7182 384.087 98.2095V98.2781C385.667 98.6532 386.882 99.3981 387.732 100.508C388.583 101.617 389.006 102.969 389.006 104.575C389.006 105.896 388.815 107.037 388.44 107.988C388.065 108.944 387.474 109.71 386.671 110.286C385.868 110.867 384.806 111.295 383.485 111.575C382.164 111.861 380.537 111.998 378.604 111.998C377.917 111.998 377.315 111.993 376.781 111.982C376.247 111.971 375.751 111.961 375.275 111.945C374.805 111.934 374.282 111.903 373.717 111.855C373.152 111.808 372.512 111.771 371.804 111.734C371.097 111.713 370.225 111.67 369.189 111.623ZM374.245 97.2902H379.729C380.389 97.2902 380.97 97.1476 381.483 96.8676C381.99 96.5823 382.37 96.1967 382.629 95.7001C382.888 95.2035 383.02 94.6277 383.02 93.9673C383.02 93.1643 382.867 92.5145 382.56 92.0179C382.254 91.5213 381.752 91.1568 381.06 90.9244C380.363 90.6866 379.438 90.5704 378.281 90.5704C377.975 90.5704 377.706 90.5704 377.468 90.5704C377.23 90.5704 377.013 90.5757 376.813 90.5862C376.612 90.5968 376.39 90.6074 376.142 90.6232C375.893 90.6338 375.624 90.6549 375.328 90.6761C375.032 90.6972 374.673 90.7342 374.25 90.7817V97.2902H374.245ZM374.245 107.766C374.715 107.787 375.159 107.819 375.571 107.856C375.983 107.888 376.343 107.914 376.649 107.925C376.955 107.935 377.246 107.941 377.515 107.941C377.785 107.941 378.065 107.941 378.35 107.941C379.766 107.941 380.859 107.83 381.641 107.602C382.418 107.381 382.988 106.99 383.342 106.435C383.696 105.88 383.871 105.178 383.871 104.327C383.871 103.244 383.527 102.409 382.846 101.834C382.159 101.258 381.134 100.967 379.771 100.967H374.245V107.766Z"></path><path d="M392.322 111.659V86.8931H397.309V107.306H408.668V111.659H392.322Z"></path><path d="M410.157 111.66L418.187 86.7139H424.167L432.271 111.66H426.788L425.192 106.461H416.951L415.361 111.66H410.157ZM417.902 102.314H424.236L421.051 90.8134L417.902 102.314Z"></path></g></svg>