<svg width="278" height="132" viewBox="0 0 278 132" fill="none" xmlns="http://www.w3.org/2000/svg">
<g clip-path="url(#clip0_185_797)">
<path d="M87.144 112.862L88.442 113.662V114.134L81.38 114.13L80.466 110.968L72.794 110.964L71.838 114.124L64.814 114.12V113.648L66.112 112.85L72.116 92.328L70.172 88.876V88.694L80.058 88.7L87.108 112.864L87.144 112.862ZM74.056 106.46L79.172 106.462L76.658 97.85L74.056 106.46Z" fill="#EEE7D2"/>
<path d="M64.474 107.332C64.506 110.592 61.924 114.086 56.362 114.14C51.5 114.188 48.2 111.8 47.792 107.772L47.018 107.674L46.904 107.22C47.186 107.148 47.468 107.074 47.75 107.002L53.668 105.648C53.598 106.104 53.566 106.526 53.57 106.91C53.586 108.628 54.442 109.53 55.952 109.516C57.426 109.502 58.45 108.72 58.438 107.528C58.398 103.356 48.29 101.736 48.226 95.042C48.196 91.958 50.708 88.744 56.012 88.692C60.836 88.646 64.358 90.854 64.4 95.376L58.226 96.872L58.148 96.416L58.586 95.992L58.584 95.712C58.57 94.17 57.936 93.334 56.352 93.35C55.1 93.362 54.258 93.93 54.268 94.912C54.3 98.77 64.412 100.776 64.474 107.332Z" fill="#EEE7D2"/>
<path d="M17.666 106.97H18.16V114.11L0.265991 114.108V113.638L1.55999 112.84V90.008L0.265991 89.21V88.74L17.78 88.742V94.432H17.286L16.448 93.2H6.66399V96.642H16.6V101.064H6.66399V108.204H16.83L17.666 106.97Z" fill="#EEE7D2"/>
<path d="M37.704 107.302H38.2L38.198 114.1L20.136 114.096V113.624L21.434 112.824L21.442 89.922L20.144 89.122V88.65L27.744 88.652V89.124L26.446 89.924L26.44 108.536L36.866 108.538L37.704 107.302Z" fill="#EEE7D2"/>
<path d="M112.05 89.2L110.754 90L110.782 112.862L112.08 113.658V114.13L103.274 114.14V113.668L104.57 112.868L104.558 103.324L97.652 98.106L97.67 112.876L98.968 113.674V114.146L90.162 114.156V113.684L91.458 112.884L91.43 90.022L90.132 89.224V88.752L97.642 88.744L97.646 92.3L104.552 97.518L104.542 88.736L112.052 88.728L112.05 89.2Z" fill="#EEE7D2"/>
<path d="M134.68 93.82L127.272 92.704L127.3 112.874L128.6 113.672V114.144L119.742 114.156V113.684L121.04 112.882L121.012 92.712L113.682 93.848L113.674 88.724L134.674 88.696L134.68 93.82Z" fill="#EEE7D2"/>
<path d="M162.232 102.148C161.854 109.142 155.558 114.518 148.21 114.12C140.862 113.722 135.182 107.698 135.56 100.704C135.938 93.71 142.234 88.334 149.582 88.732C156.93 89.13 162.61 95.154 162.232 102.148ZM156.428 101.834C156.642 97.882 153.474 94.484 149.286 94.258C145.098 94.032 141.544 97.066 141.33 101.016C141.114 105.002 144.32 108.402 148.508 108.628C152.696 108.856 156.212 105.82 156.428 101.834Z" fill="#EEE7D2"/>
<path d="M277.716 102.138C277.336 109.138 271.034 114.518 263.68 114.12C256.326 113.722 250.64 107.692 251.02 100.692C251.4 93.692 257.702 88.312 265.056 88.71C272.408 89.108 278.094 95.138 277.716 102.138ZM271.904 101.822C272.118 97.868 268.946 94.466 264.754 94.24C260.562 94.014 257.004 97.05 256.79 101.006C256.574 104.996 259.784 108.4 263.976 108.626C268.168 108.852 271.69 105.812 271.904 101.822Z" fill="#EEE7D2"/>
<path d="M203.714 110.8L205.854 113.97V114.042L198.44 113.992L198.5 105.056L198.09 105.054C196.968 111.252 191.21 114.334 185.398 114.294C176.308 114.232 171.846 107.712 171.89 101.258C171.934 94.84 176.41 88.486 185.276 88.546C189.784 88.576 193.164 90.054 195.64 93.05L191.034 96.424C190.072 95.282 188.666 94.068 185.238 94.044C180.544 94.012 178.172 97.648 178.148 101.372C178.122 105.166 180.554 109.012 185.584 109.046C188.34 109.064 190.994 107.806 192.132 105.012L187.774 104.982L187.806 100.3L203.788 100.408L203.714 110.8Z" fill="#EEE7D2"/>
<path d="M229.992 112.85L231.29 113.648V114.12L224.228 114.126L223.31 110.966L215.638 110.972L214.686 114.134L207.662 114.14V113.668L208.958 112.868L214.932 92.336L212.982 88.886V88.704L222.868 88.696L229.952 112.848L229.992 112.85ZM216.892 106.468L222.008 106.464L219.48 97.856L216.892 106.468Z" fill="#EEE7D2"/>
<path d="M250.4 93.804L242.992 92.688L243.02 112.858L244.32 113.656V114.128L235.462 114.14V113.668L236.76 112.866L236.732 92.696L229.402 93.832L229.394 88.708L250.394 88.68L250.4 93.804Z" fill="#EEE7D2"/>
<path d="M113.776 131.492V121.952C114.394 121.916 114.928 121.888 115.382 121.87C115.836 121.852 116.218 121.84 116.532 121.836C116.844 121.832 117.092 121.83 117.274 121.83C118.09 121.83 118.77 121.89 119.316 122.014C119.86 122.136 120.288 122.328 120.602 122.592C120.914 122.856 121.132 123.2 121.256 123.626C121.38 124.052 121.44 124.564 121.44 125.164C121.44 125.78 121.374 126.312 121.244 126.756C121.112 127.2 120.904 127.564 120.618 127.846C120.332 128.128 119.956 128.336 119.488 128.472C119.02 128.608 118.446 128.676 117.766 128.676C117.576 128.676 117.414 128.676 117.284 128.676C117.154 128.676 117.032 128.674 116.924 128.67C116.816 128.666 116.706 128.664 116.596 128.664C116.486 128.664 116.362 128.658 116.222 128.644C116.082 128.632 115.908 128.624 115.698 128.624V131.496H113.776V131.492ZM115.694 123.408V127.096C115.858 127.106 116 127.112 116.122 127.116C116.244 127.122 116.362 127.126 116.476 127.13C116.59 127.134 116.7 127.14 116.81 127.144C116.918 127.148 117.046 127.15 117.192 127.15C117.672 127.15 118.06 127.114 118.354 127.042C118.65 126.97 118.88 126.852 119.048 126.688C119.216 126.524 119.332 126.314 119.394 126.056C119.458 125.798 119.49 125.486 119.49 125.124C119.49 124.806 119.46 124.536 119.402 124.314C119.344 124.092 119.236 123.91 119.082 123.77C118.928 123.63 118.714 123.526 118.442 123.456C118.17 123.388 117.824 123.354 117.408 123.354C117.29 123.354 117.176 123.354 117.068 123.354C116.958 123.354 116.842 123.356 116.72 123.36C116.598 123.364 116.454 123.372 116.292 123.38C116.13 123.39 115.93 123.4 115.694 123.408Z" fill="#EEE7D2"/>
<path d="M122.54 128.472V121.966H124.432V128.498C124.432 128.742 124.466 128.956 124.534 129.138C124.602 129.32 124.7 129.468 124.826 129.586C124.954 129.704 125.1 129.798 125.268 129.872C125.436 129.944 125.62 129.994 125.82 130.022C126.02 130.048 126.218 130.062 126.418 130.062C126.644 130.062 126.858 130.046 127.058 130.014C127.258 129.982 127.442 129.93 127.61 129.858C127.778 129.786 127.92 129.69 128.038 129.572C128.156 129.454 128.25 129.306 128.324 129.13C128.396 128.952 128.432 128.742 128.432 128.498V121.966H130.324V128.472C130.324 128.944 130.266 129.356 130.148 129.71C130.03 130.064 129.86 130.364 129.638 130.608C129.416 130.852 129.146 131.048 128.828 131.192C128.51 131.338 128.148 131.446 127.74 131.52C127.332 131.592 126.892 131.628 126.42 131.628C125.958 131.628 125.526 131.592 125.128 131.52C124.728 131.448 124.37 131.338 124.054 131.192C123.736 131.048 123.464 130.852 123.238 130.608C123.012 130.364 122.838 130.064 122.72 129.71C122.6 129.356 122.54 128.942 122.54 128.472Z" fill="#EEE7D2"/>
<path d="M131.904 131.492V121.966H138.49V123.64H133.862V125.804H138.15V127.41H133.862V129.846H138.748V131.492H131.904Z" fill="#EEE7D2"/>
<path d="M139.96 131.478V121.992C140.494 121.964 140.97 121.938 141.382 121.91C141.794 121.884 142.18 121.862 142.538 121.85C142.896 121.836 143.226 121.83 143.526 121.83C144.388 121.83 145.08 121.91 145.6 122.068C146.122 122.226 146.5 122.476 146.736 122.816C146.972 123.156 147.09 123.598 147.09 124.144C147.09 124.662 146.972 125.106 146.736 125.478C146.5 125.85 146.152 126.132 145.688 126.322V126.348C146.296 126.494 146.762 126.78 147.09 127.206C147.416 127.632 147.58 128.154 147.58 128.77C147.58 129.278 147.506 129.716 147.362 130.084C147.218 130.452 146.99 130.746 146.682 130.968C146.374 131.19 145.964 131.356 145.456 131.464C144.948 131.572 144.322 131.628 143.578 131.628C143.314 131.628 143.082 131.626 142.878 131.622C142.674 131.618 142.48 131.612 142.3 131.608C142.118 131.604 141.918 131.592 141.702 131.574C141.484 131.556 141.24 131.54 140.968 131.526C140.694 131.512 140.358 131.496 139.96 131.478ZM141.906 125.966H144.016C144.27 125.966 144.494 125.912 144.69 125.804C144.884 125.696 145.032 125.546 145.132 125.354C145.232 125.164 145.282 124.942 145.282 124.688C145.282 124.38 145.222 124.13 145.104 123.938C144.986 123.748 144.792 123.608 144.526 123.516C144.258 123.426 143.902 123.38 143.458 123.38C143.34 123.38 143.236 123.38 143.146 123.38C143.054 123.38 142.972 123.382 142.894 123.386C142.816 123.39 142.73 123.396 142.636 123.4C142.54 123.404 142.436 123.412 142.322 123.42C142.208 123.43 142.07 123.442 141.906 123.462V125.966ZM141.906 129.996C142.088 130.006 142.258 130.016 142.416 130.03C142.574 130.042 142.714 130.052 142.832 130.056C142.95 130.06 143.06 130.062 143.166 130.062C143.272 130.062 143.378 130.062 143.486 130.062C144.03 130.062 144.452 130.02 144.752 129.932C145.052 129.846 145.27 129.696 145.406 129.484C145.542 129.272 145.61 129.002 145.61 128.674C145.61 128.258 145.478 127.936 145.216 127.714C144.952 127.492 144.558 127.38 144.032 127.38H141.908V129.996H141.906Z" fill="#EEE7D2"/>
<path d="M148.86 131.492V121.966H150.778V129.818H155.146V131.492H148.86Z" fill="#EEE7D2"/>
<path d="M155.718 131.492L158.808 121.898H161.108L164.224 131.492H162.114L161.5 129.492H158.33L157.718 131.492H155.718ZM158.698 127.9H161.134L159.91 123.478L158.698 127.9Z" fill="#EEE7D2"/>
<path d="M131.95 5.43202C132.024 5.35802 132.024 5.23802 131.95 5.16402C131.876 5.09002 131.756 5.09002 131.682 5.16402L129.7 7.14602C129.626 7.10002 129.544 7.06602 129.456 7.04402V5.93402C129.456 5.83002 129.372 5.74402 129.266 5.74402C129.16 5.74402 129.076 5.82802 129.076 5.93402V7.04402C128.988 7.06402 128.906 7.10002 128.832 7.14602L126.85 5.16402C126.776 5.09002 126.656 5.09002 126.582 5.16402C126.508 5.23802 126.508 5.35802 126.582 5.43202L128.564 7.41402C128.518 7.48802 128.482 7.57002 128.462 7.65802H127.352C127.248 7.65802 127.162 7.74202 127.162 7.84802C127.162 7.95402 127.246 8.03802 127.352 8.03802H128.462C128.482 8.12402 128.516 8.20402 128.562 8.27802L126.554 10.264C126.48 10.338 126.478 10.458 126.552 10.532C126.59 10.57 126.638 10.588 126.686 10.588C126.734 10.588 126.782 10.57 126.82 10.534L128.828 8.55002C128.904 8.59802 128.986 8.63202 129.076 8.65402V9.76202C129.076 9.86602 129.16 9.95202 129.266 9.95202C129.372 9.95202 129.456 9.86802 129.456 9.76202V8.65402C129.544 8.63402 129.626 8.59802 129.7 8.55202L131.682 10.534C131.72 10.572 131.768 10.59 131.816 10.59C131.864 10.59 131.914 10.572 131.95 10.534C132.024 10.46 132.024 10.34 131.95 10.266L129.968 8.28402C130.014 8.21002 130.048 8.12802 130.07 8.04002H131.18C131.284 8.04002 131.37 7.95602 131.37 7.85002C131.37 7.74402 131.286 7.66002 131.18 7.66002H130.07C130.05 7.57202 130.014 7.49002 129.968 7.41602L131.95 5.43202Z" fill="#EEE7D2"/>
<path d="M142.574 0.93202C142.648 0.85802 142.648 0.738021 142.574 0.664021C142.5 0.590021 142.38 0.590021 142.306 0.664021L139.58 3.39002C139.46 3.30602 139.32 3.24802 139.172 3.22202V1.66402C139.172 1.56002 139.088 1.47402 138.982 1.47402C138.876 1.47402 138.792 1.55802 138.792 1.66402V3.22202C138.642 3.25002 138.504 3.30802 138.384 3.39002L135.658 0.664021C135.584 0.590021 135.464 0.590021 135.39 0.664021C135.316 0.738021 135.316 0.85802 135.39 0.93202L138.116 3.65802C138.032 3.77802 137.974 3.91802 137.948 4.06602H136.388C136.284 4.06602 136.198 4.15002 136.198 4.25602C136.198 4.36202 136.282 4.44602 136.388 4.44602H137.948C137.976 4.59402 138.032 4.73002 138.114 4.85002L135.354 7.58002C135.28 7.65402 135.278 7.77402 135.352 7.84802C135.39 7.88602 135.438 7.90402 135.486 7.90402C135.534 7.90402 135.582 7.88602 135.62 7.85002L138.382 5.11802C138.504 5.20402 138.644 5.26202 138.796 5.29002V6.84802C138.796 6.95202 138.88 7.03802 138.986 7.03802C139.092 7.03802 139.176 6.95402 139.176 6.84802V5.29002C139.326 5.26202 139.464 5.20402 139.584 5.12202L142.31 7.84802C142.346 7.88602 142.396 7.90402 142.444 7.90402C142.492 7.90402 142.542 7.88602 142.578 7.84802C142.652 7.77402 142.652 7.65402 142.578 7.58002L139.852 4.85402C139.936 4.73402 139.994 4.59402 140.02 4.44602H141.58C141.684 4.44602 141.77 4.36202 141.77 4.25602C141.77 4.15002 141.686 4.06602 141.58 4.06602H140.02C139.992 3.91602 139.934 3.77802 139.852 3.65802L142.574 0.93202Z" fill="#EEE7D2"/>
<path d="M149.462 8.28202C149.508 8.20802 149.544 8.12602 149.564 8.03802H150.674C150.778 8.03802 150.864 7.95402 150.864 7.84802C150.864 7.74202 150.78 7.65802 150.674 7.65802H149.564C149.544 7.57002 149.508 7.48802 149.462 7.41402L151.444 5.43202C151.518 5.35802 151.518 5.23802 151.444 5.16402C151.37 5.09002 151.25 5.09002 151.176 5.16402L149.194 7.14602C149.12 7.10002 149.038 7.06402 148.95 7.04402V5.93402C148.95 5.83002 148.866 5.74402 148.76 5.74402C148.654 5.74402 148.57 5.82802 148.57 5.93402V7.04402C148.482 7.06402 148.4 7.10002 148.326 7.14602L146.344 5.16402C146.27 5.09002 146.15 5.09002 146.076 5.16402C146.002 5.23802 146.002 5.35802 146.076 5.43202L148.058 7.41402C148.012 7.48802 147.976 7.57002 147.956 7.65802H146.846C146.742 7.65802 146.656 7.74202 146.656 7.84802C146.656 7.95402 146.74 8.03802 146.846 8.03802H147.956C147.976 8.12402 148.01 8.20402 148.056 8.27802L146.048 10.264C145.974 10.338 145.972 10.458 146.046 10.532C146.084 10.57 146.132 10.588 146.18 10.588C146.228 10.588 146.276 10.57 146.314 10.534L148.322 8.55002C148.398 8.59802 148.48 8.63202 148.57 8.65402V9.76202C148.57 9.86602 148.654 9.95202 148.76 9.95202C148.866 9.95202 148.95 9.86802 148.95 9.76202V8.65402C149.038 8.63402 149.12 8.59802 149.194 8.55202L151.176 10.534C151.212 10.572 151.262 10.59 151.31 10.59C151.358 10.59 151.408 10.572 151.444 10.534C151.518 10.46 151.518 10.34 151.444 10.266L149.462 8.28202Z" fill="#EEE7D2"/>
<path d="M167.546 22.074C166.31 20.766 164.912 20.198 164.146 19.95C165.034 18.388 164.632 16.714 163.666 16.154C163.076 15.812 162.186 15.832 161.596 16.278C160.758 16.91 160.956 18.042 160.664 19.198C160.382 20.32 159.49 21.772 156.75 23.134C155.188 21.706 148.932 16.322 139.308 16.096C130.298 15.884 124.092 20.33 122.328 21.692C120.484 17.128 118.628 13.46 117.156 10.78C114.044 5.11598 112.514 3.62998 111.01 3.72398C110.174 3.77598 109.246 4.31598 108.926 5.11398C108.282 6.70998 110.512 8.24198 113.06 12.154C113.49 12.814 115.954 16.606 117.442 21.72C117.968 23.53 118.248 25.076 118.406 26.156C116.23 29.378 115.312 32.364 114.89 34.246C114.484 36.048 113.838 39.926 115.034 44.298C115.402 45.642 116.302 48.934 118.09 49.176C118.282 49.202 118.724 49.262 119.042 48.998C120.2 48.038 117.172 44.916 117.852 40.944C118.21 38.85 119.14 39.21 120.134 35.758C120.426 34.746 120.696 33.536 121.646 33.124C122.068 32.94 122.728 32.892 123.128 33.23C124.236 34.168 122.766 37.59 122.538 38.106C121.586 40.264 120.81 40.398 120.828 41.638C120.84 42.474 121.456 43.386 122.688 45.21C123.894 46.996 124.304 47.126 124.572 47.084C125.186 46.99 125.506 45.944 125.574 45.718C125.81 44.944 125.662 44.28 125.548 43.794C125.284 42.678 124.714 41.854 124.26 41.336C124.91 40.382 125.622 39.168 126.248 37.7C127.004 35.928 127.41 34.31 127.638 33.018C128.934 32.232 133.352 29.774 139.306 30.514C145.588 31.296 149.38 35.116 150.374 36.186C150.69 38.048 151.004 40.882 150.682 44.3C150.304 48.318 149.286 50.642 150.352 51.452C151.316 52.184 153.566 51.362 154.652 49.91C155.586 48.66 155.362 47.338 155.262 44.302C155.208 42.652 155.18 40.19 155.356 37.122C155.63 36.976 156.282 36.58 156.668 35.784C157.358 34.356 156.566 32.936 156.49 32.804C156.702 32.286 157.112 31.52 157.884 31.182C159.63 30.416 161.138 32.736 163.638 32.78C166.206 32.824 169.246 30.454 169.67 27.514C170.072 24.746 168.012 22.568 167.546 22.074ZM162.638 23.676C162.556 23.16 163.016 22.92 163.016 22.92V22.542C163.016 22.542 164.136 22.57 164.02 23.326C163.904 24.082 163.522 23.884 163.522 23.884V24.228C163.524 24.226 162.722 24.192 162.638 23.676ZM164.736 29.62C164.21 29.806 163.792 29.948 163.518 29.736C163.312 29.578 163.276 29.29 163.272 29.12C163.768 29.076 164.292 29.012 164.84 28.926C165.262 28.86 165.664 28.784 166.046 28.702C166.072 28.77 166.098 28.84 166.126 28.908C165.576 29.286 165.082 29.498 164.736 29.62Z" fill="#EEE7D2"/>
<path d="M192.71 15.122C193.124 13.972 193.71 12.808 194.694 12.018C195.378 11.47 196.134 11.436 196.626 12.232C197.388 13.584 197.278 15.228 197.004 16.696C196.944 16.992 196.658 17.184 196.362 17.124C196.044 17.062 195.848 16.726 195.95 16.418C196.182 15.688 196.34 14.926 196.356 14.164C196.346 13.5 196.332 12.658 195.814 12.196C195.242 11.924 194.434 12.718 194.048 13.12C193.512 13.708 193.08 14.4 192.732 15.13C192.726 15.144 192.704 15.136 192.71 15.122Z" fill="#EEE7D2"/>
<path d="M195.072 10.858C195.508 9.69603 196.116 8.52602 197.128 7.73602C198.21 6.90202 199.064 7.44202 199.44 8.62002C199.84 9.87602 199.746 11.214 199.482 12.478C199.42 12.772 199.13 12.96 198.834 12.898C198.52 12.834 198.33 12.504 198.428 12.2C198.782 10.968 199.028 9.56003 198.518 8.35203C198.388 8.12803 198.276 7.96203 198.03 7.98403C197.456 8.08803 197 8.53202 196.6 8.96202C196.08 9.54602 195.662 10.234 195.328 10.96C195.256 11.118 195.012 11.02 195.072 10.858Z" fill="#EEE7D2"/>
<path d="M191.42 14.898C191.02 14.224 190.566 13.582 190.036 13.022C189.652 12.63 189.224 12.228 188.708 12.068C188.652 12.056 188.562 12.046 188.508 12.054C188.288 12.098 188.222 12.384 188.156 12.606C187.938 13.836 188.26 15.106 188.642 16.282C188.742 16.568 188.588 16.882 188.3 16.98C187.994 17.086 187.656 16.892 187.592 16.576C187.32 15.222 187.134 13.776 187.552 12.426C187.754 11.852 188.17 11.354 188.858 11.616C189.45 11.872 189.87 12.362 190.246 12.848C190.722 13.486 191.1 14.182 191.42 14.898Z" fill="#EEE7D2"/>
<path d="M194.244 10.504C194.062 9.74998 193.82 9.01198 193.486 8.33198C193.224 7.84198 192.942 7.29798 192.458 7.03998C192.432 7.02798 192.414 7.03198 192.392 7.02398C192.374 7.01998 192.366 7.03198 192.354 7.02598C192.342 7.03398 192.334 7.03998 192.322 7.03998C192.246 7.06798 192.086 7.27598 192.016 7.39798C191.458 8.49198 191.394 9.77798 191.412 10.996C191.424 11.35 191.144 11.65 190.79 11.658C190.414 11.67 190.104 11.342 190.138 10.968C190.258 9.62798 190.49 8.23998 191.21 7.06598C191.476 6.63998 191.978 6.12798 192.572 6.29798C193.888 6.80198 194.338 9.21398 194.52 10.452C194.542 10.628 194.284 10.676 194.244 10.504Z" fill="#EEE7D2"/>
<path d="M195.042 5.99204C195.076 4.68004 195.088 3.35804 194.688 2.12204C194.584 1.82004 194.402 1.37604 194.124 1.27604C194.018 1.26604 193.908 1.29804 193.808 1.35604C193.288 1.64604 192.902 2.16004 192.54 2.65204C192.05 3.36004 191.644 4.14204 191.258 4.94404C191.226 5.01204 191.144 5.04204 191.078 5.01004C191.02 4.98204 190.992 4.91804 191.004 4.85804C191.364 3.36404 192.09 1.55004 193.474 0.710037C194.13 0.332037 194.74 0.636041 195.066 1.22004C195.806 2.70604 195.628 4.48204 195.238 6.02604C195.208 6.13404 195.036 6.10804 195.042 5.99204Z" fill="#EEE7D2"/>
<path d="M187.724 19.644C186.492 19.93 185.256 20.192 184.256 20.942C184.134 21.056 183.99 21.174 183.956 21.332C183.948 21.342 183.982 21.446 184.072 21.554C184.982 22.502 186.324 22.816 187.578 23.206C187.674 23.232 187.732 23.332 187.704 23.428C187.682 23.504 187.616 23.554 187.542 23.558C186.066 23.612 184.37 23.31 183.316 22.156C182.62 21.332 183.158 20.46 183.986 20.02C185.128 19.402 186.472 19.274 187.718 19.45C187.828 19.46 187.832 19.626 187.724 19.644Z" fill="#EEE7D2"/>
<path d="M188.73 10.792C188.254 10.168 187.79 9.558 187.278 9.016C186.89 8.644 186.456 8.15201 185.94 8.08401C185.876 8.09801 185.762 8.344 185.72 8.472C185.578 8.942 185.548 9.42001 185.538 9.92601C185.526 10.676 185.608 11.438 185.686 12.22C185.706 12.372 185.484 12.436 185.422 12.294C184.89 11.09 184.574 9.71201 184.822 8.38201C184.92 7.91401 185.156 7.402 185.634 7.222C186.358 7.004 187.012 7.55601 187.476 8.03001C188.172 8.77601 188.682 9.71001 188.986 10.662C189.036 10.814 188.824 10.924 188.73 10.792Z" fill="#EEE7D2"/>
<path d="M188.528 5.624C188.458 4.344 188.184 2.904 187.308 1.94C187.172 1.83 187.062 1.708 186.886 1.706C186.652 1.728 186.342 2.014 186.17 2.21C185.866 2.58 185.628 3.004 185.434 3.47C185.09 4.3 184.914 5.22 184.85 6.15C184.848 6.194 184.81 6.226 184.768 6.224C184.73 6.222 184.7 6.192 184.696 6.154C184.6 5.212 184.61 4.242 184.826 3.28C185.088 2.006 186.042 0.0160001 187.668 0.674C189.364 1.466 190.208 3.638 190.604 5.344C190.864 6.836 188.672 7.132 188.528 5.624Z" fill="#EEE7D2"/>
<path d="M185.836 14.666C184.588 14.5 183.25 14.458 182.102 14.994C181.936 15.078 181.662 15.276 181.65 15.424C181.622 15.66 181.872 15.974 182.056 16.166C182.86 16.958 183.956 17.426 185.036 17.746C185.32 17.826 185.486 18.122 185.404 18.406C185.32 18.704 184.992 18.866 184.702 18.756C183.508 18.29 182.336 17.664 181.486 16.668C180.622 15.638 180.882 14.722 182.17 14.358C183.39 14.016 184.68 14.148 185.884 14.42C186.038 14.456 185.994 14.692 185.836 14.666Z" fill="#EEE7D2"/>
<path d="M181.798 19.826C180.55 19.98 179.248 20.272 178.28 21.08C178.172 21.172 177.952 21.446 177.998 21.534C178.01 21.604 178.214 21.82 178.326 21.894C179.302 22.552 180.55 22.724 181.718 22.764C182.176 22.774 182.538 23.154 182.528 23.61C182.522 24.114 182.048 24.5 181.554 24.408C180.252 24.164 178.952 23.758 177.894 22.91C176.806 22.032 176.812 20.96 178.114 20.306C179.258 19.736 180.558 19.63 181.796 19.676C181.882 19.68 181.888 19.818 181.798 19.826Z" fill="#EEE7D2"/>
<path d="M176.094 23.542C176.034 23.542 175.974 23.532 175.914 23.512C174.688 23.082 170.714 21.556 171.062 19.948C171.358 18.586 174.46 18.53 176.28 18.618C176.58 18.632 176.812 18.888 176.798 19.188C176.784 19.488 176.522 19.722 176.228 19.706C173.62 19.58 172.374 19.962 172.14 20.182C172.282 20.548 173.566 21.534 176.272 22.482C176.556 22.582 176.706 22.892 176.606 23.176C176.53 23.402 176.32 23.542 176.094 23.542Z" fill="#EEE7D2"/>
<path d="M183.518 11.554C182.512 11.12 179.964 10.124 178.99 10.67C178.98 10.676 178.984 10.692 178.972 10.702C178.962 10.712 178.968 10.742 178.958 10.762C178.988 11.266 179.382 11.754 179.702 12.174C180.206 12.796 180.798 13.36 181.42 13.888C181.598 14.036 181.382 14.316 181.194 14.178C180.308 13.518 177.672 11.536 178.388 10.266C179.022 9.43197 180.57 9.72397 181.458 9.85797C182.302 10.016 183.12 10.256 183.918 10.542C184.202 10.644 184.35 10.956 184.248 11.238C184.148 11.536 183.806 11.682 183.518 11.554Z" fill="#EEE7D2"/>
<path d="M179.184 15.32C178.222 14.776 177.116 14.268 176 14.374C175.842 14.408 175.762 14.438 175.71 14.496C175.708 14.51 175.702 14.53 175.694 14.544C175.696 14.586 175.682 14.614 175.69 14.66C175.728 15.104 175.996 15.524 176.26 15.904C176.656 16.442 177.154 16.922 177.694 17.346C177.936 17.54 177.666 17.914 177.404 17.742C176.464 17.13 174.496 15.408 175.02 14.134C175.516 13.272 176.79 13.47 177.59 13.608C178.332 13.762 179.034 14.032 179.704 14.362C179.974 14.496 180.084 14.822 179.95 15.092C179.814 15.378 179.454 15.484 179.184 15.32Z" fill="#EEE7D2"/>
<path d="M183.06 6.25C181.936 5.41 180.826 4.454 179.476 4.066C179.312 4.024 179.15 4.04 179.122 4.062C179.07 4.1 179.052 4.20001 179.04 4.29601C179.066 5.69601 179.8 6.99001 180.362 8.27001C180.41 8.36201 180.274 8.45 180.21 8.368C179.35 7.34 177.952 5.21 178.39 3.816C178.692 3.038 179.728 3.26001 180.302 3.54601C181.49 4.11001 182.484 4.998 183.314 5.988C183.452 6.156 183.228 6.386 183.06 6.25Z" fill="#EEE7D2"/>
<path d="M177.802 9.34201C176.842 8.83801 175.738 8.38001 174.642 8.54201C173.686 8.66001 174.32 9.78601 174.67 10.276C175.052 10.814 175.532 11.286 176.054 11.706C175.258 11.226 173.094 9.40801 174.002 8.39601C174.592 7.89201 175.424 7.96801 176.134 8.04201C176.834 8.13601 177.506 8.35201 178.152 8.62401C178.356 8.71001 178.452 8.94401 178.366 9.14801C178.276 9.36801 178.006 9.46001 177.802 9.34201Z" fill="#EEE7D2"/>
<path d="M174.626 12.564C173.13 12.658 171.576 12.822 170.24 13.52C170.066 13.63 169.818 13.782 169.81 13.934C169.884 14.058 170.014 14.192 170.196 14.314C171.22 14.97 172.49 15.258 173.696 15.474C174.104 15.542 174.38 15.928 174.312 16.336C174.242 16.78 173.78 17.064 173.352 16.928C172.018 16.496 170.68 16 169.586 15.06C169.106 14.658 168.678 13.878 169.254 13.324C170.016 12.66 171.018 12.586 171.958 12.472C172.854 12.396 173.744 12.416 174.626 12.492C174.674 12.49 174.674 12.562 174.626 12.564Z" fill="#EEE7D2"/>
<path d="M199.686 7.94398C200.25 6.75998 200.798 5.55598 200.936 4.26398C200.964 3.94598 200.978 3.46598 200.764 3.26198C200.672 3.20998 200.558 3.19398 200.442 3.20598C199.848 3.25998 199.288 3.57198 198.756 3.87398C198.02 4.32198 197.332 4.86998 196.654 5.44798C196.598 5.49798 196.512 5.49198 196.462 5.43398C196.42 5.38598 196.42 5.31597 196.456 5.26597C197.392 4.04797 198.792 2.68398 200.398 2.47998C201.52 2.36798 201.774 3.48398 201.624 4.34198C201.408 5.72598 200.71 6.98598 199.852 8.05198C199.782 8.14198 199.632 8.04798 199.686 7.94398Z" fill="#EEE7D2"/>
<path d="M86.254 15.13C85.666 13.966 84.838 12.592 83.562 12.152C82.706 11.952 82.62 13.588 82.63 14.164C82.646 14.926 82.804 15.688 83.036 16.418C83.13 16.706 82.972 17.018 82.682 17.108C82.376 17.208 82.044 17.012 81.982 16.696C81.708 15.228 81.598 13.584 82.36 12.232C83.2 10.89 84.528 12.038 85.162 12.938C85.652 13.61 86.008 14.356 86.276 15.124C86.28 15.136 86.26 15.144 86.254 15.13Z" fill="#EEE7D2"/>
<path d="M83.66 10.96C83.16 9.906 82.504 8.85601 81.53 8.21401C80.758 7.72801 80.508 8.062 80.298 8.842C80.048 9.944 80.236 11.12 80.558 12.198C80.65 12.488 80.486 12.796 80.196 12.884C79.892 12.978 79.57 12.786 79.504 12.476C79.21 11.006 79.082 9.354 79.834 7.986C80.696 6.59 82.078 7.72401 82.758 8.65801C83.264 9.33401 83.634 10.084 83.916 10.856C83.972 11.02 83.732 11.12 83.66 10.96Z" fill="#EEE7D2"/>
<path d="M87.566 14.898C87.886 14.182 88.264 13.486 88.742 12.846C89.118 12.362 89.538 11.87 90.13 11.614C90.818 11.352 91.234 11.85 91.436 12.424C91.854 13.774 91.668 15.22 91.396 16.574C91.334 16.87 91.044 17.058 90.748 16.996C90.428 16.93 90.236 16.588 90.346 16.282C90.728 15.106 91.05 13.836 90.832 12.606C90.766 12.384 90.7 12.098 90.48 12.054C90.426 12.044 90.334 12.058 90.278 12.068C89.762 12.23 89.334 12.63 88.95 13.022C88.42 13.582 87.966 14.224 87.566 14.898Z" fill="#EEE7D2"/>
<path d="M84.466 10.454C84.648 9.21802 85.098 6.80402 86.414 6.30002C87.148 6.11402 87.654 6.81802 87.944 7.35402C88.526 8.48002 88.742 9.73002 88.848 10.97C88.876 11.322 88.614 11.63 88.264 11.658C87.886 11.692 87.558 11.376 87.574 10.998C87.592 9.78002 87.526 8.49202 86.97 7.40002C86.884 7.25802 86.738 7.06002 86.632 7.02802C86.574 7.02002 86.506 7.05202 86.446 7.08202C86.024 7.37202 85.744 7.86402 85.502 8.33402C85.166 9.01402 84.924 9.75202 84.744 10.506C84.704 10.674 84.442 10.628 84.466 10.454Z" fill="#EEE7D2"/>
<path d="M83.748 5.84799C83.396 4.52399 83.27 3.08999 83.636 1.73799C84.022 0.325992 85.022 -0.110007 86.128 0.995993C87.108 2.00999 87.67 3.34199 87.98 4.68199C87.996 4.75399 87.95 4.82599 87.878 4.84399C87.814 4.85799 87.752 4.82599 87.726 4.76799C87.342 3.96599 86.936 3.18399 86.444 2.47599C86.082 1.98399 85.696 1.46999 85.176 1.17999C84.42 0.68599 84.092 2.68599 84.024 3.18399C83.912 4.04199 83.916 4.92399 83.944 5.81799C83.952 5.93199 83.774 5.96199 83.748 5.84799Z" fill="#EEE7D2"/>
<path d="M91.266 19.446C92.512 19.27 93.856 19.398 94.998 20.016C96.264 20.712 96.316 21.838 95.126 22.646C94.038 23.37 92.706 23.618 91.442 23.556C91.344 23.55 91.268 23.466 91.274 23.366C91.278 23.286 91.334 23.222 91.408 23.204C92.66 22.816 94.004 22.502 94.914 21.552C95.022 21.414 95.038 21.354 95.026 21.302C94.968 21.152 94.85 21.05 94.73 20.94C94.376 20.66 93.976 20.468 93.538 20.286C92.824 20.004 92.056 19.818 91.262 19.644C91.154 19.626 91.158 19.458 91.266 19.446Z" fill="#EEE7D2"/>
<path d="M90 10.66C90.272 9.79999 90.716 8.97399 91.3 8.26199C91.858 7.59199 92.986 6.64199 93.78 7.52199C94.68 8.71599 94.138 11.048 93.564 12.292C93.5 12.434 93.28 12.372 93.3 12.218C93.378 11.438 93.46 10.674 93.448 9.92399C93.438 9.41799 93.408 8.93999 93.266 8.46999C93.224 8.34199 93.108 8.09599 93.046 8.08199C92.532 8.15199 92.098 8.64199 91.708 9.01399C91.196 9.55399 90.73 10.164 90.256 10.79C90.164 10.924 89.946 10.81 90 10.66Z" fill="#EEE7D2"/>
<path d="M88.382 5.34602C88.74 3.79802 89.336 2.28002 90.538 1.17202C91.028 0.726016 91.762 0.378019 92.428 0.632019C93.476 1.06802 93.92 2.28602 94.16 3.28202C94.374 4.24402 94.386 5.21402 94.288 6.15602C94.28 6.24602 94.138 6.24602 94.134 6.15402C94.03 4.74402 93.694 3.31002 92.812 2.21402C92.612 2.00202 92.27 1.63402 91.984 1.72802C91.798 1.80602 91.634 1.97202 91.504 2.14002C90.776 3.10602 90.516 4.43002 90.456 5.63202C90.31 7.13002 88.124 6.83602 88.382 5.34602Z" fill="#EEE7D2"/>
<path d="M93.102 14.42C94.5 14.124 96.12 13.92 97.44 14.63C98.798 15.434 97.396 16.972 96.538 17.56C95.844 18.07 95.078 18.454 94.284 18.756C94.01 18.86 93.702 18.724 93.596 18.45C93.484 18.16 93.65 17.83 93.95 17.748C95.03 17.428 96.126 16.96 96.93 16.168C97.114 15.978 97.366 15.662 97.336 15.426C97.322 15.278 97.05 15.08 96.884 14.996C96.462 14.786 96 14.68 95.518 14.616C94.74 14.518 93.938 14.554 93.148 14.668C92.994 14.692 92.946 14.456 93.102 14.42Z" fill="#EEE7D2"/>
<path d="M97.192 19.678C98.63 19.642 100.284 19.742 101.456 20.706C102.706 21.856 100.972 23.176 99.942 23.63C99.14 24.012 98.296 24.252 97.434 24.408C96.984 24.488 96.552 24.19 96.472 23.74C96.378 23.246 96.766 22.772 97.27 22.766C98.496 22.712 99.868 22.556 100.83 21.752C100.932 21.656 100.982 21.562 100.99 21.538C101.01 21.508 100.974 21.38 100.872 21.262C100.522 20.84 100.018 20.598 99.502 20.378C98.776 20.088 97.988 19.918 97.19 19.828C97.1 19.82 97.102 19.678 97.192 19.678Z" fill="#EEE7D2"/>
<path d="M102.892 23.542C102.666 23.542 102.456 23.402 102.378 23.178C102.278 22.894 102.428 22.584 102.712 22.484C105.42 21.536 106.702 20.55 106.844 20.184C106.61 19.964 105.362 19.584 102.756 19.708C102.456 19.728 102.2 19.49 102.186 19.19C102.172 18.89 102.404 18.634 102.704 18.62C104.526 18.532 107.626 18.588 107.922 19.95C108.272 21.558 104.298 23.084 103.07 23.514C103.012 23.532 102.95 23.542 102.892 23.542Z" fill="#EEE7D2"/>
<path d="M95.064 10.542C96.48 10.06 97.976 9.60599 99.498 9.73199C101.498 9.99399 100.656 11.584 99.702 12.54C99.116 13.16 98.464 13.688 97.79 14.178C97.604 14.314 97.386 14.04 97.562 13.89C98.184 13.362 98.778 12.796 99.282 12.174C99.602 11.756 99.996 11.266 100.026 10.762C100.018 10.742 100.024 10.712 100.012 10.702C100.002 10.692 100.006 10.676 99.994 10.67C99.018 10.124 96.478 11.118 95.466 11.554C94.78 11.834 94.37 10.814 95.064 10.542Z" fill="#EEE7D2"/>
<path d="M99.28 14.364C100.382 13.812 102.948 12.878 103.908 14.03C104.35 14.804 103.696 15.722 103.228 16.302C102.744 16.87 102.18 17.338 101.58 17.744C101.468 17.82 101.314 17.79 101.238 17.678C101.164 17.57 101.19 17.422 101.292 17.344C101.832 16.92 102.328 16.442 102.724 15.904C102.99 15.526 103.256 15.104 103.294 14.66C103.302 14.614 103.29 14.584 103.29 14.544L103.28 14.52C103.276 14.508 103.276 14.492 103.264 14.486C103.26 14.476 103.256 14.472 103.246 14.468C103.218 14.444 103.112 14.394 102.984 14.372C101.866 14.266 100.758 14.776 99.796 15.32C99.146 15.68 98.622 14.714 99.28 14.364Z" fill="#EEE7D2"/>
<path d="M95.67 5.99203C96.5 5.00203 97.494 4.11403 98.682 3.55003C100.026 2.91403 100.972 3.41603 100.616 4.96803C100.3 6.24803 99.6 7.38003 98.774 8.37203C98.742 8.41003 98.684 8.41603 98.644 8.38203C98.612 8.35403 98.604 8.31003 98.62 8.27203C98.98 7.51003 99.33 6.75403 99.6 5.98403C99.78 5.38203 100.054 4.71803 99.898 4.11203C99.876 4.06803 99.87 4.07003 99.86 4.06403C99.832 4.04203 99.67 4.02603 99.506 4.06803C98.95 4.20003 98.432 4.50203 97.93 4.80403C97.24 5.23603 96.582 5.73803 95.922 6.25003C95.758 6.38603 95.532 6.15403 95.67 5.99203Z" fill="#EEE7D2"/>
<path d="M100.834 8.626C101.804 8.222 102.85 7.92799 103.916 8.00599C104.834 8.06999 105.524 8.55799 105.052 9.53599C104.596 10.468 103.77 11.148 102.932 11.706C103.69 11.084 104.426 10.348 104.774 9.42399C104.882 9.13199 104.892 8.806 104.712 8.688C103.75 8.15199 102.082 8.85999 101.178 9.34199C100.686 9.59399 100.33 8.856 100.834 8.626Z" fill="#EEE7D2"/>
<path d="M104.358 12.488C105.876 12.384 108.52 12.274 109.73 13.322C110.67 14.39 109.004 15.438 108.202 15.878C107.376 16.324 106.512 16.654 105.632 16.926C105.238 17.048 104.818 16.828 104.696 16.432C104.56 16.004 104.844 15.544 105.288 15.472C106.494 15.256 107.764 14.968 108.788 14.312C108.97 14.19 109.1 14.056 109.174 13.932C109.184 13.932 109.18 13.894 109.142 13.842C108.608 13.278 107.708 13.088 106.96 12.894C106.114 12.706 105.238 12.606 104.358 12.564C104.314 12.564 104.31 12.49 104.358 12.488Z" fill="#EEE7D2"/>
<path d="M78.83 8.46802C77.972 7.40202 77.274 6.14203 77.058 4.75803C76.838 3.31003 77.574 2.50802 79.034 3.06802C80.34 3.59802 81.396 4.58603 82.224 5.68403C82.268 5.74403 82.256 5.82802 82.196 5.87202C82.144 5.91002 82.074 5.90602 82.026 5.86602C81.348 5.28802 80.66 4.74002 79.924 4.29202C79.394 3.98802 78.832 3.67602 78.238 3.62402C77.346 3.48002 77.858 5.44002 77.998 5.92402C78.244 6.75402 78.606 7.56003 78.994 8.36403C79.05 8.46003 78.9 8.56002 78.83 8.46802Z" fill="#EEE7D2"/>
<path d="M195.958 23.582C195.788 23.248 195.532 22.966 195.224 22.75C194.904 23.25 194.418 23.644 193.83 23.808C193.212 24.004 192.602 23.938 192.072 23.698C191.76 24.438 191.89 25.332 192.41 25.948C194.114 27.864 197.048 25.886 195.958 23.582Z" fill="#EEE7D2"/>
<path d="M188.066 21.124C186.638 23.372 189.55 25.784 191.472 23.92C191.586 23.802 191.68 23.67 191.766 23.532C190.726 22.886 190.122 21.54 190.676 20.304C189.754 19.94 188.616 20.28 188.066 21.124Z" fill="#EEE7D2"/>
<path d="M192.234 18.268C192.126 18.498 192.06 18.742 192.034 18.99C193.368 18.466 195.098 19.1 195.54 20.668C195.578 20.79 195.602 20.912 195.618 21.036C196.17 20.634 196.51 19.946 196.5 19.258C196.46 16.908 193.304 16.166 192.234 18.268Z" fill="#EEE7D2"/>
<path d="M191.31 20.442C190.382 22.128 191.866 24.052 193.742 23.506C194.872 23.19 195.556 21.884 195.176 20.778C194.602 18.976 192.192 18.796 191.31 20.442Z" fill="#EEE7D2"/>
<path d="M163.616 52.942C163.344 51.64 163.222 50.226 163.684 48.934C164.006 48.036 164.686 47.574 165.596 48.03C167.074 48.848 167.908 50.436 168.49 51.952C168.604 52.26 168.446 52.602 168.138 52.714C167.808 52.838 167.434 52.638 167.354 52.294C167.152 51.486 166.866 50.69 166.446 49.974C166.058 49.364 165.564 48.592 164.822 48.46C164.144 48.526 163.838 49.736 163.712 50.324C163.55 51.174 163.544 52.062 163.638 52.938C163.642 52.952 163.618 52.958 163.616 52.942Z" fill="#EEE7D2"/>
<path d="M196.59 31.666C196.502 31.606 196.38 31.628 196.32 31.718C195.894 32.34 195.394 32.904 194.836 33.396C193.5 34.586 191.772 35.332 190.006 35.53C190.922 32.346 191.532 29.078 191.8 25.78C191.562 25.32 191.462 24.79 191.542 24.268C191.258 24.502 190.922 24.672 190.566 24.768C190.012 29.288 188.848 33.708 187.148 37.908C186.782 35.914 185.8 34.068 184.11 32.818C183.05 32.024 181.81 31.522 180.544 31.288C180.446 31.27 180.346 31.33 180.32 31.428C180.292 31.532 180.354 31.638 180.458 31.666C182.236 32.144 183.838 33.176 184.846 34.706C186.05 36.524 186.292 38.78 185.84 40.882C182.308 48.27 177.066 54.828 170.514 59.814C170.33 59.958 170.144 60.098 169.958 60.238C169.162 59.716 168.434 59.072 167.822 58.344C166.328 56.56 165.512 54.254 165.514 51.922C165.51 51.678 165.158 51.662 165.126 51.898C164.676 55.344 166.062 58.882 168.594 61.228C164.9 63.824 160.928 65.874 156.792 67.372C156.436 66.906 155.932 66.538 155.264 66.336C153.732 65.898 152.032 66.388 150.852 67.454C150.296 67.986 149.862 68.658 149.6 69.392C148.614 69.592 147.624 69.764 146.63 69.908C145.548 65.418 140.994 61.466 136.392 63.938C134.174 65.19 132.654 67.424 132.068 69.898C131.106 69.76 130.148 69.596 129.196 69.402C128.934 68.666 128.5 67.988 127.94 67.454C126.758 66.388 125.06 65.898 123.528 66.336C122.854 66.538 122.35 66.908 121.994 67.378C120.09 66.686 118.22 65.876 116.392 64.948C116.91 62.906 117.812 60.928 119.072 59.156C119.218 58.954 118.932 58.718 118.76 58.892C117.24 60.412 115.978 62.234 115.062 64.248C113.402 63.342 111.78 62.336 110.21 61.228C103.884 56.854 98.644 51.058 94.83 44.436C94.848 42.892 95.126 41.332 95.634 39.868C96.638 36.994 98.558 34.474 101.052 32.716C101.252 32.574 101.054 32.272 100.846 32.388C97.224 34.386 94.556 37.898 93.438 41.86C90.732 36.498 88.934 30.674 88.214 24.674C87.98 24.578 87.754 24.444 87.546 24.266C87.642 24.948 87.438 25.632 87.032 26.166C87.31 29.256 87.88 32.326 88.724 35.324C88.432 35.354 88.138 35.372 87.844 35.372C85.858 35.376 83.898 34.606 82.382 33.314C82.31 33.252 82.2 33.252 82.126 33.318C82.046 33.39 82.04 33.512 82.11 33.592C82.582 34.12 83.118 34.598 83.706 35.012C85.274 36.13 87.204 36.718 89.136 36.708C89.726 38.6 90.424 40.46 91.228 42.276C92.594 45.338 94.26 48.272 96.186 51.028C97.842 53.408 99.658 55.602 101.606 57.612C100.564 58.132 99.4 58.414 98.226 58.364C96.522 58.306 94.816 57.626 93.44 56.524C93.362 56.46 93.248 56.466 93.178 56.538C93.104 56.614 93.106 56.738 93.182 56.812C95.674 59.276 99.458 59.978 102.648 58.654C108.102 63.968 114.52 67.892 121.392 70.372C121.556 71.304 121.99 72.204 122.638 72.852C124.432 74.716 127.954 75.01 129.124 72.52C130.032 72.7 130.942 72.854 131.858 72.986C132.044 74.69 132.688 76.338 133.712 77.744C135.002 79.536 137.106 80.882 139.392 80.87C143.538 80.85 146.354 76.894 146.804 73.03C147.764 72.896 148.72 72.736 149.672 72.548C150.856 75.006 154.358 74.708 156.144 72.85C156.78 72.214 157.212 71.332 157.382 70.418C164.146 67.976 170.526 64.084 176.05 58.692C176.466 58.294 176.872 57.884 177.274 57.472C178.944 58.8 181.128 59.394 183.242 58.788C184.668 58.372 185.934 57.44 186.778 56.244C186.828 56.174 186.818 56.076 186.754 56.016C186.682 55.95 186.57 55.958 186.506 56.032C185.594 57.032 184.374 57.732 183.052 57.95C182.41 58.046 181.762 58.026 181.128 57.902C180.08 57.67 179.108 57.102 178.346 56.338C183.458 50.748 187.336 44.012 189.618 36.79C191.776 36.462 193.786 35.426 195.264 33.832C195.806 33.25 196.27 32.602 196.648 31.914C196.696 31.834 196.672 31.722 196.59 31.666ZM122.6 67.004C124.056 68.462 125.738 70.12 127.224 71.524L127.308 71.604C127.456 71.74 127.458 71.99 127.316 72.128C127.18 72.274 126.93 72.276 126.79 72.13L126.706 72.048C125.678 71.018 124.414 69.776 123.358 68.758C122.928 68.352 122.502 67.94 122.068 67.538C122.216 67.34 122.392 67.16 122.6 67.004ZM124.036 73.374L125.282 72.372C125.554 72.136 125.164 71.756 124.936 72.032C124.936 72.032 124.172 73.02 123.936 73.326C123.606 73.17 123.292 72.97 123.006 72.726L124.726 71.264C125.12 70.902 124.552 70.348 124.198 70.746C124.198 70.746 123.11 72.078 122.762 72.504C122.504 72.248 122.282 71.95 122.098 71.626L123.412 70.536C123.656 70.32 123.304 69.976 123.094 70.224C123.094 70.224 122.256 71.276 122.048 71.538C121.37 70.282 121.274 68.678 122.032 67.594C122.762 68.392 123.798 69.472 124.536 70.242C125.19 70.928 125.922 71.66 126.586 72.342C127.314 72.996 128.2 71.916 127.428 71.312C125.934 69.91 124.198 68.346 122.648 66.974C122.912 66.786 123.222 66.634 123.588 66.532C124.578 66.278 125.654 66.472 126.556 66.956L125.284 67.976C125.018 68.206 125.398 68.578 125.622 68.308C125.622 68.308 126.526 67.134 126.63 66.998C126.96 67.182 127.262 67.406 127.53 67.66L125.882 69.082C125.528 69.406 126.044 69.91 126.36 69.552C126.36 69.552 127.486 68.196 127.744 67.884C127.986 68.158 128.192 68.464 128.358 68.79L127.096 69.754C126.748 70.048 127.236 70.526 127.522 70.172C127.522 70.172 128.232 69.206 128.43 68.934C128.638 69.382 128.774 69.864 128.832 70.346C129.186 73.37 126.294 74.374 124.036 73.374ZM138.618 76.328C138.694 72.312 138.67 67.68 138.634 63.624C139.14 63.542 139.636 63.538 140.116 63.604C140.084 64.762 140.076 65.92 140.054 67.076C140.034 69.958 140.02 73.464 140.056 76.324L140.058 76.556C140.072 76.95 139.726 77.3 139.334 77.292C138.944 77.3 138.598 76.95 138.612 76.556L138.618 76.328ZM141.694 72.452C141.694 72.452 144.896 72.162 146.064 72.056C146.018 72.766 145.86 73.484 145.604 74.176L142.484 73.808C141.772 73.758 141.774 74.814 142.484 74.764C142.484 74.764 144.606 74.514 145.512 74.406C144.136 77.836 140.46 80.576 136.896 78.63C135.302 77.732 134.104 76.192 133.436 74.46L136.302 74.872C137.198 74.95 137.198 73.618 136.302 73.696C136.302 73.696 134.234 73.994 133.314 74.126C133.082 73.446 132.932 72.74 132.87 72.036L137.032 72.382C137.436 72.418 137.786 72.07 137.748 71.666C137.718 71.302 137.398 71.03 137.032 71.06C137.032 71.06 133.754 71.332 132.846 71.408C132.852 70.69 132.954 69.958 133.144 69.246L136.304 69.624C136.998 69.674 136.996 68.642 136.304 68.692C136.304 68.692 134.03 68.964 133.19 69.066C133.742 67.15 134.93 65.382 136.63 64.35C137.27 63.984 137.906 63.754 138.526 63.64C138.316 67.78 138.11 72.442 138.024 76.546C138.06 78.322 140.612 78.32 140.65 76.55C140.612 73.594 140.504 70.046 140.406 67.07C140.354 65.92 140.314 64.77 140.252 63.62C142.81 64.032 144.9 66.37 145.716 69.054L142.486 68.72C141.842 68.684 141.844 69.636 142.486 69.598C142.486 69.598 144.808 69.358 145.776 69.258C145.97 69.958 146.078 70.678 146.084 71.392L141.696 70.994C141.248 70.95 140.858 71.338 140.902 71.788C140.938 72.192 141.292 72.488 141.694 72.452ZM156.724 67.538C156.29 67.94 155.864 68.352 155.434 68.758C154.38 69.774 153.112 71.02 152.086 72.048L152.002 72.13C151.864 72.276 151.612 72.272 151.476 72.128C151.334 71.99 151.336 71.738 151.484 71.604L151.568 71.524C153.054 70.12 154.732 68.464 156.192 67.004C156.402 67.16 156.578 67.34 156.724 67.538ZM156.748 71.538L155.702 70.224C155.492 69.976 155.14 70.322 155.384 70.536C155.384 70.536 156.468 71.434 156.698 71.626C156.514 71.95 156.292 72.246 156.034 72.504L154.598 70.746C154.244 70.346 153.678 70.904 154.07 71.264C154.07 71.264 155.362 72.362 155.79 72.726C155.502 72.97 155.188 73.168 154.86 73.326L153.86 72.032C153.63 71.754 153.242 72.138 153.514 72.372C153.514 72.372 154.43 73.11 154.76 73.374C152.5 74.374 149.61 73.37 149.97 70.346C150.026 69.862 150.164 69.382 150.372 68.934L151.28 70.172C151.566 70.526 152.054 70.046 151.706 69.754C151.706 69.754 150.662 68.956 150.444 68.79C150.61 68.464 150.814 68.158 151.058 67.884L152.442 69.552C152.758 69.912 153.274 69.406 152.92 69.082C152.92 69.082 151.56 67.908 151.272 67.66C151.538 67.406 151.842 67.182 152.172 66.998L153.18 68.308C153.404 68.578 153.784 68.206 153.518 67.976C153.518 67.976 152.404 67.084 152.246 66.956C153.148 66.472 154.224 66.276 155.214 66.532C155.578 66.634 155.89 66.786 156.154 66.974C154.606 68.344 152.866 69.91 151.374 71.312C150.602 71.918 151.49 72.996 152.216 72.342C152.88 71.662 153.614 70.928 154.266 70.242C155.002 69.474 156.042 68.39 156.77 67.594C157.522 68.676 157.426 70.282 156.748 71.538Z" fill="#EEE7D2"/>
<path d="M166.938 47.378C167.09 46.206 167.218 44.974 166.9 43.828C166.834 43.642 166.774 43.476 166.644 43.392C165.9 43.39 164.81 45.496 164.506 46.158C164.424 46.342 164.14 46.224 164.212 46.036C164.592 45.09 165.454 42.884 166.61 42.764C168.104 42.838 167.956 46.416 167.878 47.486C167.81 48.126 166.862 48.022 166.938 47.378Z" fill="#EEE7D2"/>
<path d="M170.008 50.288C170.292 49.468 170.562 48.636 170.556 47.778C170.552 47.576 170.524 47.264 170.384 47.146C170.246 47.052 169.966 47.164 169.798 47.24C169.034 47.62 168.426 48.248 167.83 48.872C167.762 48.95 167.632 48.856 167.686 48.768C168.224 47.886 169.112 46.778 170.21 46.63C170.63 46.582 170.906 46.94 170.97 47.284C171.14 48.368 170.674 49.452 170.12 50.346C170.084 50.412 169.978 50.36 170.008 50.288Z" fill="#EEE7D2"/>
<path d="M162.866 49.986C162.072 49.636 161.266 49.296 160.41 49.23C160.208 49.218 159.896 49.22 159.766 49.348C159.66 49.478 159.748 49.766 159.81 49.938C160.124 50.732 160.7 51.39 161.274 52.034C161.346 52.108 161.24 52.23 161.158 52.168C160.324 51.56 159.294 50.582 159.238 49.476C159.226 49.054 159.604 48.808 159.954 48.772C161.048 48.692 162.088 49.248 162.936 49.874C162.996 49.92 162.934 50.02 162.866 49.986Z" fill="#EEE7D2"/>
<path d="M163.906 46.88C163.02 46.22 162.148 45.468 161.084 45.162C160.942 45.134 160.826 45.136 160.794 45.17C160.76 45.206 160.746 45.284 160.742 45.346C160.76 46.448 161.342 47.466 161.782 48.474C161.82 48.546 161.714 48.616 161.662 48.552C160.984 47.734 159.884 46.07 160.23 44.966C160.418 44.46 161.064 44.488 161.48 44.654C162.532 45.058 163.392 45.84 164.106 46.678C164.216 46.804 164.038 46.988 163.906 46.88Z" fill="#EEE7D2"/>
<path d="M164.254 44.368C164.052 43.536 162.918 41.556 162.586 43.466C162.522 43.844 162.526 44.234 162.568 44.62C162.488 44.24 162.444 43.848 162.472 43.452C162.51 43.07 162.59 42.45 163.084 42.422C163.884 42.53 164.404 43.548 164.692 44.218C164.74 44.336 164.684 44.472 164.566 44.52C164.438 44.574 164.29 44.5 164.254 44.368Z" fill="#EEE7D2"/>
<path d="M176.968 29.674C176.128 29.334 175.252 29.034 174.352 28.952C174.084 28.934 173.742 28.916 173.526 29.048C173.486 29.076 173.484 29.08 173.472 29.142C173.502 29.526 173.812 29.892 174.062 30.208C174.456 30.674 174.918 31.096 175.4 31.49C175.538 31.6 175.378 31.818 175.232 31.716C174.556 31.238 172.224 29.548 173.158 28.624C173.356 28.444 173.638 28.382 173.858 28.348C174.364 28.284 174.876 28.334 175.368 28.414C176.016 28.522 176.642 28.694 177.258 28.898C177.476 28.97 177.594 29.206 177.522 29.424C177.45 29.65 177.19 29.768 176.968 29.674Z" fill="#EEE7D2"/>
<path d="M180.116 28C179.516 27.526 178.904 27.06 178.188 26.814C178.018 26.758 177.752 26.692 177.612 26.772C177.492 26.86 177.506 27.124 177.52 27.286C177.614 28.032 177.96 28.72 178.306 29.396C178.352 29.474 178.234 29.556 178.178 29.484C177.834 29.082 177.544 28.63 177.334 28.13C177.168 27.71 177.012 27.23 177.134 26.764C177.212 26.404 177.598 26.274 177.898 26.322C178.848 26.494 179.614 27.198 180.198 27.918C180.24 27.972 180.166 28.042 180.116 28Z" fill="#EEE7D2"/>
<path d="M178.322 33.712C177.852 34.314 177.39 34.93 177.15 35.646C177.096 35.816 177.03 36.082 177.112 36.222C177.2 36.34 177.464 36.326 177.626 36.31C178.372 36.212 179.058 35.86 179.73 35.51C179.808 35.464 179.89 35.58 179.82 35.638C179.42 35.984 178.97 36.278 178.472 36.49C178.052 36.658 177.574 36.818 177.108 36.7C176.748 36.624 176.614 36.24 176.66 35.938C176.826 34.986 177.524 34.216 178.24 33.628C178.292 33.588 178.364 33.66 178.322 33.712Z" fill="#EEE7D2"/>
<path d="M175.892 32.156C175.224 32.688 174.542 33.208 174.024 33.876C173.916 34.018 173.734 34.29 173.758 34.434C173.76 34.44 173.754 34.44 173.764 34.448C173.76 34.452 173.776 34.462 173.786 34.47C173.79 34.482 173.818 34.49 173.834 34.5C174.216 34.66 174.67 34.608 175.092 34.584C175.656 34.532 176.222 34.424 176.796 34.312C176.866 34.296 176.902 34.402 176.836 34.432C175.98 34.838 174.348 35.418 173.466 34.884C172.432 33.982 175.014 32.242 175.76 31.94C175.894 31.876 176.012 32.066 175.892 32.156Z" fill="#EEE7D2"/>
<path d="M173.788 32.802C171.564 32.478 171.06 31.072 173.676 30.902C173.28 30.944 172.03 31.254 172.104 31.758C172.432 32.268 173.258 32.358 173.824 32.398C174.106 32.414 174.068 32.834 173.788 32.802Z" fill="#EEE7D2"/>
<path d="M181.27 30.088C180.006 30.164 178.696 30.294 177.566 30.876C177.408 30.986 177.23 31.072 177.202 31.224C177.266 31.324 177.368 31.442 177.528 31.544C178.386 32.104 179.46 32.348 180.474 32.536C180.818 32.594 181.05 32.922 180.99 33.266C180.928 33.64 180.538 33.876 180.178 33.76C179.436 33.526 178.71 33.244 178.014 32.864C175.344 31.38 176.526 30.142 179.02 29.994C179.776 29.932 180.528 29.956 181.27 30.02C181.31 30.026 181.31 30.086 181.27 30.088Z" fill="#EEE7D2"/>
<path d="M186.576 52.27C186.928 51.49 187.33 50.72 187.902 50.068C188.124 49.83 188.33 49.612 188.666 49.492C189.492 49.248 189.658 50.376 189.68 50.944C189.71 51.512 189.666 52.072 189.594 52.624C189.574 52.776 189.342 52.756 189.35 52.602C189.38 52.058 189.38 51.508 189.31 50.978C189.254 50.63 189.2 50.214 188.97 49.968C188.924 49.938 188.92 49.938 188.878 49.946C188.666 50.008 188.476 50.24 188.33 50.424C187.852 51.054 187.53 51.798 187.254 52.544C187.068 53.004 186.386 52.732 186.576 52.27Z" fill="#EEE7D2"/>
<path d="M184.006 53.394C183.96 52.584 184.034 51.68 184.548 51.006C184.758 50.748 185.108 50.65 185.392 50.902C186.02 51.484 186.184 52.402 186.236 53.212C186.238 53.25 186.208 53.282 186.17 53.284C186.138 53.286 186.108 53.262 186.1 53.232C185.892 52.514 185.706 51.72 185.164 51.194C184.812 50.89 184.488 51.836 184.398 52.088C184.262 52.506 184.176 52.948 184.108 53.398C184.102 53.456 184.01 53.454 184.006 53.394Z" fill="#EEE7D2"/>
<path d="M189.058 55.698C189.862 55.584 190.77 55.584 191.484 56.038C191.76 56.226 191.884 56.566 191.658 56.872C191.13 57.546 190.23 57.786 189.426 57.904C189.388 57.908 189.354 57.882 189.35 57.844C189.346 57.812 189.366 57.78 189.396 57.77C190.094 57.502 190.87 57.252 191.348 56.668C191.622 56.292 190.652 56.048 190.394 55.978C189.966 55.878 189.518 55.828 189.064 55.798C189.006 55.798 189 55.706 189.058 55.698Z" fill="#EEE7D2"/>
<path d="M189.432 53.098C190.288 52.774 191.246 52.516 192.168 52.73C192.856 52.924 192.792 53.508 192.37 53.972C191.834 54.564 191.134 54.968 190.408 55.262C190.38 55.274 190.348 55.26 190.336 55.23C190.326 55.206 190.336 55.18 190.356 55.164C190.766 54.86 191.172 54.556 191.538 54.222C191.806 53.952 192.146 53.676 192.234 53.31C192.234 53.298 192.238 53.284 192.232 53.282C192.23 53.274 192.234 53.278 192.226 53.27C191.918 53.042 191.372 53.106 190.984 53.112C190.49 53.142 189.994 53.226 189.494 53.308C189.362 53.334 189.31 53.146 189.432 53.098Z" fill="#EEE7D2"/>
<path d="M189.93 51.218C190.552 50.618 192.386 49.918 191.716 51.51C191.59 51.788 191.418 52.038 191.224 52.268C191.468 51.904 191.69 51.494 191.72 51.054C191.762 50.212 190.39 51.2 190.172 51.48C190 51.654 189.742 51.376 189.93 51.218Z" fill="#EEE7D2"/>
<path d="M187.23 57.042C187.738 56.226 188.216 55.278 188.146 54.296C188.104 53.442 187.066 53.93 186.608 54.208C186.106 54.51 185.656 54.906 185.252 55.34C185.614 54.866 186.024 54.424 186.51 54.06C187.152 53.56 188.298 53.062 188.538 54.222C188.74 55.322 188.322 56.428 187.844 57.398C187.756 57.572 187.542 57.642 187.366 57.554C187.176 57.46 187.112 57.216 187.23 57.042Z" fill="#EEE7D2"/>
<path d="M194.814 31.98C195.512 31.088 196.408 30.108 197.606 29.964C198.088 29.936 198.394 30.282 198.502 30.704C198.762 31.92 198.284 33.152 197.724 34.21C197.608 34.422 197.342 34.5 197.13 34.384C196.9 34.26 196.832 33.956 196.984 33.746C197.336 33.242 197.638 32.698 197.832 32.118C197.984 31.608 198.174 30.96 197.888 30.482C197.506 30.138 196.714 30.55 196.316 30.768C195.74 31.08 195.26 31.576 194.814 31.98Z" fill="#EEE7D2"/>
<path d="M199.512 31.134C200.148 30.72 200.772 30.262 201.258 29.684C201.398 29.508 201.574 29.282 201.588 29.072C201.588 29.03 201.586 29.028 201.548 28.99C201.27 28.828 200.87 28.864 200.534 28.886C200.024 28.934 199.514 29.048 199.012 29.192C198.87 29.234 198.8 29.02 198.938 28.968C199.596 28.732 201.856 27.936 202.054 29.022C202.07 29.682 201.544 30.188 201.142 30.64C200.76 31.034 200.342 31.382 199.906 31.706C199.752 31.822 199.534 31.79 199.418 31.636C199.3 31.476 199.342 31.242 199.512 31.134Z" fill="#EEE7D2"/>
<path d="M199.38 34.248C199.974 34.012 200.566 33.756 201.04 33.338C201.15 33.238 201.31 33.072 201.308 32.938C201.294 32.816 201.096 32.714 200.972 32.658C200.392 32.418 199.748 32.38 199.112 32.354C199.076 32.354 199.046 32.324 199.048 32.288C199.048 32.256 199.072 32.23 199.102 32.224C199.89 32.102 200.856 32.042 201.512 32.592C201.594 32.674 201.664 32.796 201.664 32.92C201.666 33.1 201.588 33.226 201.516 33.33C200.996 33.95 200.168 34.212 199.404 34.34C199.348 34.35 199.326 34.266 199.38 34.248Z" fill="#EEE7D2"/>
<path d="M196.092 30.134C195.906 29.524 195.7 28.912 195.324 28.404C195.234 28.286 195.082 28.114 194.946 28.104C194.822 28.108 194.706 28.296 194.64 28.414C194.354 28.972 194.262 29.612 194.184 30.242C194.18 30.278 194.148 30.304 194.112 30.3C194.08 30.296 194.056 30.272 194.054 30.242C193.998 29.446 194.018 28.478 194.622 27.872C194.712 27.796 194.838 27.738 194.962 27.748C195.14 27.76 195.26 27.848 195.36 27.93C195.936 28.5 196.126 29.346 196.19 30.12C196.192 30.174 196.108 30.188 196.092 30.134Z" fill="#EEE7D2"/>
<path d="M198.322 29.208C198.276 28.494 198.244 27.778 198.034 27.104C197.988 26.962 197.888 26.708 197.778 26.654C197.744 26.64 197.69 26.674 197.644 26.706C197.04 27.248 196.756 28.066 196.41 28.796C196.398 28.822 196.368 28.836 196.34 28.824C196.318 28.814 196.306 28.79 196.308 28.768C196.452 27.96 196.798 26.62 197.608 26.238C198.734 25.978 198.676 28.554 198.534 29.22C198.514 29.344 198.326 29.334 198.322 29.208Z" fill="#EEE7D2"/>
<path d="M200.128 28.142C200.582 27.506 201.256 25.542 199.75 26.456C199.452 26.638 199.186 26.874 198.946 27.134C199.254 26.718 200.226 25.668 200.766 26.172C201.17 26.802 200.784 27.74 200.496 28.352C200.444 28.456 200.316 28.498 200.212 28.446C200.098 28.392 200.058 28.246 200.128 28.142Z" fill="#EEE7D2"/>
<path d="M123.066 57.7C123.902 57.214 124.728 56.67 125.386 55.966C125.576 55.752 125.814 55.476 125.846 55.208C125.85 55.156 125.846 55.152 125.802 55.102C125.458 54.876 124.946 54.898 124.516 54.902C123.864 54.93 123.206 55.042 122.558 55.192C122.376 55.236 122.298 54.958 122.48 54.902C123.326 54.644 126.274 53.782 126.444 55.174C126.466 55.458 126.336 55.736 126.218 55.944C125.942 56.414 125.566 56.812 125.176 57.174C124.662 57.65 124.108 58.066 123.534 58.452C123.33 58.588 123.054 58.534 122.918 58.33C122.772 58.12 122.842 57.826 123.066 57.7Z" fill="#EEE7D2"/>
<path d="M122.694 61.656C123.464 61.39 124.236 61.108 124.868 60.606C125.016 60.486 125.228 60.284 125.236 60.112C125.226 59.954 124.98 59.814 124.828 59.734C124.104 59.39 123.286 59.304 122.48 59.226C122.434 59.222 122.398 59.182 122.402 59.134C122.406 59.094 122.436 59.064 122.474 59.058C123.456 58.946 124.752 58.952 125.518 59.684C125.796 59.962 125.692 60.384 125.476 60.626C124.774 61.38 123.702 61.664 122.72 61.774C122.648 61.784 122.624 61.676 122.694 61.656Z" fill="#EEE7D2"/>
<path d="M118.776 55.892C118.576 55.102 118.358 54.31 117.91 53.638C117.802 53.482 117.62 53.252 117.45 53.23C117.406 53.222 117.334 53.254 117.254 53.328C116.992 53.588 116.848 53.962 116.714 54.316C116.54 54.822 116.43 55.358 116.336 55.904C116.328 55.95 116.284 55.98 116.24 55.972C116.2 55.966 116.172 55.932 116.17 55.894C116.14 54.912 116.256 53.608 117.048 52.912C117.348 52.658 117.76 52.796 117.984 53.032C118.678 53.794 118.87 54.886 118.898 55.874C118.9 55.948 118.79 55.962 118.776 55.892Z" fill="#EEE7D2"/>
<path d="M121.676 55.168C121.664 54.256 121.67 53.342 121.446 52.468C121.396 52.284 121.288 51.954 121.15 51.878C121.148 51.878 121.146 51.876 121.144 51.872C121.14 51.874 121.138 51.874 121.136 51.874C121.134 51.868 121.116 51.876 121.102 51.876C121.09 51.872 121.064 51.89 121.044 51.896C120.66 52.114 120.406 52.53 120.15 52.902C119.826 53.412 119.546 53.96 119.266 54.518C119.25 54.552 119.208 54.566 119.176 54.55C119.148 54.536 119.134 54.504 119.14 54.476C119.268 53.858 119.47 53.254 119.758 52.68C120.012 52.202 120.302 51.684 120.804 51.402C121.154 51.194 121.57 51.374 121.746 51.708C122.294 52.778 122.154 54.064 121.944 55.196C121.91 55.354 121.674 55.328 121.676 55.168Z" fill="#EEE7D2"/>
<path d="M123.734 53.97C124.032 53.548 124.29 53.072 124.364 52.558C124.41 52.212 124.352 51.912 123.922 52.022C123.4 52.15 122.954 52.5 122.568 52.87C122.802 52.59 123.068 52.33 123.376 52.122C123.774 51.834 124.51 51.566 124.616 52.28C124.708 52.96 124.42 53.626 124.098 54.208C124.038 54.312 123.906 54.35 123.8 54.29C123.69 54.224 123.658 54.072 123.734 53.97Z" fill="#EEE7D2"/>
<path d="M120.014 60.866C120.76 59.844 121.574 58.542 121.394 57.244C121.19 56.42 119.746 57.064 119.256 57.324C118.608 57.672 118.022 58.142 117.496 58.662C117.29 58.87 116.952 58.87 116.748 58.662C116.528 58.442 116.55 58.07 116.796 57.878C117.938 56.998 119.304 56.182 120.8 56.244C122.322 56.378 121.918 58.022 121.422 58.964C121.058 59.68 120.574 60.314 120.03 60.88C120.022 60.89 120.006 60.876 120.014 60.866Z" fill="#EEE7D2"/>
<path d="M102.73 28.074C103.686 27.046 104.722 26.008 106.036 25.436C107.798 24.762 107.818 26.458 107.45 27.666C107.24 28.438 106.938 29.164 106.598 29.868C106.504 30.062 106.202 29.934 106.282 29.73C106.562 29.016 106.802 28.286 106.942 27.548C107.02 27.06 107.13 26.48 106.93 26.052C106.914 26.04 106.906 26.012 106.892 26.008C106.878 26.006 106.874 25.99 106.864 25.99C105.81 25.976 104.16 27.918 103.514 28.73C103.068 29.268 102.276 28.608 102.73 28.074Z" fill="#EEE7D2"/>
<path d="M98.998 28.802C99.188 27.68 99.584 26.466 100.496 25.708C100.662 25.588 100.926 25.456 101.198 25.502C101.284 25.528 101.388 25.562 101.454 25.614C102.376 26.368 102.302 28.198 102.104 29.258C102.094 29.31 102.042 29.344 101.99 29.334C101.944 29.324 101.912 29.286 101.912 29.242C101.874 28.31 101.83 27.364 101.48 26.51C101.398 26.328 101.252 26.036 101.072 26.016C101.012 26.008 100.898 26.052 100.792 26.124C100.442 26.386 100.184 26.758 99.946 27.138C99.624 27.666 99.372 28.246 99.134 28.838C99.108 28.916 98.984 28.884 98.998 28.802Z" fill="#EEE7D2"/>
<path d="M104.538 33.732C105.66 33.93 106.87 34.332 107.622 35.25C107.742 35.416 107.87 35.682 107.822 35.952C107.796 36.038 107.762 36.14 107.708 36.208C106.948 37.126 105.118 37.04 104.06 36.834C104.008 36.824 103.974 36.772 103.984 36.72C103.994 36.674 104.034 36.644 104.078 36.642C105.01 36.61 105.956 36.572 106.812 36.228C106.994 36.148 107.286 36.002 107.308 35.824C107.316 35.764 107.272 35.65 107.202 35.544C106.942 35.192 106.572 34.932 106.194 34.692C105.668 34.368 105.09 34.112 104.5 33.868C104.422 33.842 104.456 33.716 104.538 33.732Z" fill="#EEE7D2"/>
<path d="M106.174 30.43C107.416 30.368 109.286 30.464 110.242 31.364C110.576 31.696 110.52 32.19 110.194 32.504C109.77 32.936 109.216 33.154 108.674 33.344C107.972 33.576 107.25 33.704 106.526 33.746C106.484 33.748 106.446 33.716 106.444 33.672C106.442 33.636 106.466 33.604 106.498 33.594C107.18 33.368 107.852 33.142 108.486 32.856C108.936 32.64 109.388 32.434 109.724 32.08C109.762 32.038 109.8 31.988 109.814 31.946C109.818 31.93 109.83 31.912 109.822 31.908C109.826 31.894 109.826 31.904 109.82 31.89C109.82 31.86 109.73 31.752 109.612 31.674C109.204 31.408 108.714 31.266 108.234 31.132C107.564 30.956 106.864 30.848 106.16 30.738C105.98 30.714 105.992 30.44 106.174 30.43Z" fill="#EEE7D2"/>
<path d="M108.52 29.748C109.328 29.302 111.076 27.554 108.986 27.75C108.574 27.79 108.168 27.906 107.776 28.06C108.15 27.868 108.546 27.71 108.968 27.626C109.518 27.498 110.42 27.544 110.212 28.346C110.006 29.11 109.402 29.688 108.802 30.16C108.692 30.244 108.534 30.224 108.45 30.114C108.36 29.998 108.394 29.824 108.52 29.748Z" fill="#EEE7D2"/>
<path d="M99.12 31.7C100.464 30.802 101.922 29.926 103.554 29.658C105.852 29.408 105.114 31.586 104.322 32.78C103.808 33.606 103.198 34.346 102.546 35.044C102.254 35.356 101.762 35.372 101.45 35.08C101.108 34.764 101.128 34.204 101.49 33.912C102.466 33.1 103.462 32.188 104.048 31.072C104.148 30.868 104.198 30.682 104.2 30.532C104.21 30.526 104.186 30.494 104.126 30.466C103.354 30.232 102.448 30.522 101.674 30.732C100.814 30.996 99.976 31.356 99.162 31.77C99.12 31.792 99.078 31.726 99.12 31.7Z" fill="#EEE7D2"/>
<path d="M91.514 53.956C90.966 53.298 90.368 52.658 89.656 52.188C89.44 52.054 89.164 51.886 88.926 51.9C88.88 51.904 88.876 51.908 88.84 51.954C88.694 52.288 88.788 52.732 88.856 53.106C88.976 53.67 89.174 54.228 89.4 54.772C89.466 54.926 89.236 55.036 89.16 54.884C88.808 54.176 87.616 51.744 88.81 51.38C89.536 51.27 90.196 51.802 90.746 52.19C91.238 52.568 91.684 52.992 92.106 53.436C92.256 53.594 92.25 53.842 92.092 53.992C91.926 54.15 91.656 54.134 91.514 53.956Z" fill="#EEE7D2"/>
<path d="M94.884 53.962C94.598 53.3 94.29 52.638 93.806 52.114C93.69 51.992 93.496 51.818 93.344 51.824C93.206 51.844 93.098 52.07 93.038 52.212C92.784 52.876 92.766 53.604 92.752 54.322C92.752 54.364 92.72 54.396 92.678 54.396C92.642 54.396 92.612 54.37 92.606 54.338C92.44 53.466 92.35 52.346 92.948 51.604C93.174 51.34 93.554 51.402 93.784 51.576C94.502 52.144 94.822 53.072 94.99 53.932C95.002 53.994 94.908 54.022 94.884 53.962Z" fill="#EEE7D2"/>
<path d="M90.842 57.928C90.18 58.218 89.522 58.53 89.002 59.018C88.88 59.136 88.708 59.33 88.714 59.482C88.734 59.62 88.962 59.726 89.104 59.786C89.77 60.036 90.498 60.05 91.216 60.058C91.258 60.058 91.29 60.09 91.292 60.132C91.292 60.168 91.268 60.198 91.234 60.206C90.362 60.378 89.244 60.474 88.498 59.882C88.232 59.658 88.292 59.278 88.464 59.046C89.028 58.324 89.952 57.998 90.812 57.824C90.872 57.81 90.902 57.904 90.842 57.928Z" fill="#EEE7D2"/>
<path d="M89.508 55.546C88.714 55.692 87.914 55.822 87.184 56.148C87.03 56.218 86.758 56.364 86.714 56.494C86.714 56.5 86.708 56.498 86.712 56.508C86.706 56.51 86.716 56.524 86.72 56.536C86.718 56.548 86.738 56.566 86.746 56.584C86.994 56.888 87.396 57.048 87.758 57.216C88.252 57.424 88.772 57.586 89.3 57.75C89.332 57.76 89.35 57.792 89.34 57.824C89.332 57.85 89.306 57.868 89.28 57.868C88.368 57.818 86.788 57.594 86.268 56.742C85.82 55.518 88.732 55.234 89.494 55.31C89.636 55.314 89.648 55.526 89.508 55.546Z" fill="#EEE7D2"/>
<path d="M87.466 55.146C86.672 54.65 85.444 52.924 87.296 53.198C87.622 53.256 87.93 53.37 88.22 53.512C87.864 53.372 86.696 53.07 86.528 53.524C86.578 54.1 87.22 54.536 87.678 54.824C87.904 54.964 87.684 55.3 87.466 55.146Z" fill="#EEE7D2"/>
<path d="M94.916 56.22C93.828 55.72 92.678 55.246 91.476 55.226C91.294 55.246 91.108 55.24 91.018 55.354C91.026 55.466 91.06 55.61 91.146 55.768C91.612 56.618 92.4 57.3 93.162 57.91C93.424 58.112 93.47 58.488 93.266 58.75C93.048 59.034 92.616 59.058 92.368 58.8C91.854 58.274 91.372 57.716 90.962 57.088C89.394 54.668 90.94 54.152 93.082 55.142C93.74 55.428 94.356 55.782 94.948 56.166C94.976 56.186 94.95 56.236 94.916 56.22Z" fill="#EEE7D2"/>
<path d="M82.04 35.38C81.228 34.676 80.458 33.826 80.124 32.768C79.892 32.034 80.104 31.404 80.912 31.25C82.262 31.054 83.576 31.666 84.692 32.356C84.916 32.498 84.982 32.796 84.84 33.018C84.688 33.26 84.35 33.314 84.13 33.132C83.606 32.71 83.03 32.34 82.41 32.084C81.862 31.882 81.166 31.626 80.624 31.904C80.22 32.296 80.614 33.194 80.822 33.646C81.134 34.272 81.564 34.844 82.054 35.364C82.062 35.374 82.048 35.388 82.04 35.38Z" fill="#EEE7D2"/>
<path d="M81.454 30.176C81.046 29.45 80.59 28.734 79.994 28.16C79.812 27.994 79.578 27.786 79.348 27.756C79.304 27.752 79.3 27.754 79.256 27.792C79.058 28.086 79.07 28.526 79.068 28.894C79.082 29.454 79.172 30.022 79.292 30.58C79.328 30.738 79.088 30.802 79.042 30.646C78.832 29.89 78.204 27.688 79.148 27.276C80.202 26.99 81.596 29.016 82.108 29.784C82.382 30.23 81.72 30.628 81.454 30.176Z" fill="#EEE7D2"/>
<path d="M84.852 30.546C84.636 29.88 84.398 29.214 83.978 28.662C83.876 28.534 83.706 28.348 83.558 28.34C83.422 28.346 83.298 28.556 83.228 28.686C82.924 29.304 82.836 30.006 82.762 30.698C82.758 30.738 82.724 30.768 82.684 30.764C82.65 30.762 82.622 30.734 82.618 30.7C82.54 29.836 82.548 28.76 83.196 28.09C83.292 28.006 83.432 27.938 83.566 27.948C83.762 27.958 83.894 28.052 84.004 28.14C84.646 28.754 84.872 29.68 84.956 30.526C84.962 30.588 84.87 30.606 84.852 30.546Z" fill="#EEE7D2"/>
<path d="M79.26 31.338C78.476 31.336 77.69 31.32 76.936 31.5C76.776 31.54 76.492 31.63 76.426 31.746C76.41 31.784 76.44 31.842 76.474 31.898C77.024 32.598 77.896 32.968 78.672 33.4C78.732 33.428 78.698 33.526 78.632 33.508C77.77 33.298 76.304 32.806 75.958 31.902C75.748 30.656 78.576 30.898 79.288 31.106C79.422 31.14 79.398 31.342 79.26 31.338Z" fill="#EEE7D2"/>
<path d="M78.224 29.286C77.78 28.962 77.278 28.682 76.732 28.592C76.362 28.54 76.046 28.59 76.156 29.052C76.284 29.61 76.648 30.09 77.036 30.506C76.604 30.138 75.524 28.998 76.116 28.444C76.818 28.048 77.848 28.542 78.482 28.898C78.592 28.962 78.63 29.106 78.564 29.216C78.496 29.336 78.334 29.368 78.224 29.286Z" fill="#EEE7D2"/>
<path d="M80.11 33.846C79.428 34.006 78.744 34.186 78.16 34.562C78.024 34.652 77.824 34.806 77.804 34.952C77.8 35.088 77.998 35.23 78.122 35.31C78.712 35.664 79.406 35.81 80.088 35.942C80.128 35.948 80.154 35.986 80.148 36.024C80.142 36.058 80.112 36.082 80.08 36.084C79.212 36.09 78.14 35.992 77.528 35.292C77.314 35.03 77.438 34.678 77.644 34.49C78.308 33.902 79.25 33.754 80.1 33.74C80.162 33.74 80.172 33.834 80.11 33.846Z" fill="#EEE7D2"/>
<path d="M85.336 23.508C87.212 24.054 88.696 22.128 87.768 20.444C86.876 18.796 84.486 18.974 83.902 20.78C83.522 21.886 84.206 23.19 85.336 23.508Z" fill="#EEE7D2"/>
<path d="M83.834 26.354C84.708 26.96 85.992 26.778 86.668 25.948C87.188 25.332 87.318 24.438 87.006 23.698C86.476 23.938 85.866 24.004 85.248 23.808C84.66 23.644 84.172 23.248 83.852 22.748C82.614 23.582 82.552 25.51 83.834 26.354Z" fill="#EEE7D2"/>
<path d="M90.566 24.082C91.638 23.246 91.648 21.476 90.568 20.642C89.97 20.148 89.114 20.024 88.4 20.304C88.954 21.542 88.348 22.892 87.306 23.536C87.962 24.64 89.578 24.926 90.566 24.082Z" fill="#EEE7D2"/>
<path d="M82.688 19.98C82.736 20.12 82.798 20.26 82.878 20.394C83.03 20.646 83.228 20.866 83.46 21.036C83.476 20.912 83.5 20.79 83.538 20.668C83.982 19.096 85.716 18.464 87.05 18.992C86.95 17.948 86.004 17.044 84.934 17.024C84.604 17.006 84.292 17.062 84.01 17.174C83.952 17.2 83.894 17.226 83.836 17.256C82.842 17.79 82.388 18.938 82.688 19.98Z" fill="#EEE7D2"/>
</g>
<defs>
<clipPath id="clip0_185_797">
<rect width="278" height="132" fill="white"/>
</clipPath>
</defs>
</svg>
